{"glyphs":{"0":{"ha":625,"x_min":-11,"x_max":636,"o":"m 236 339 q 253 156 236 243 q 303 50 269 69 q 389 399 389 82 q 321 700 389 660 q 236 339 236 671 m -11 354 q 135 653 26 535 q 339 771 243 771 q 526 652 435 771 q 636 394 617 533 q 490 97 599 215 q 285 -21 382 -21 q 99 98 189 -21 q -11 354 8 217 z "},"1":{"ha":625,"x_min":104,"x_max":519,"o":"m 482 765 q 444 509 457 675 q 432 224 432 343 q 442 61 432 106 q 519 24 481 35 l 510 -11 q 334 1 447 1 q 117 -32 221 1 l 104 -4 q 207 44 135 15 q 239 486 239 242 q 238 574 239 543 q 131 564 188 567 l 122 607 q 365 753 297 663 q 472 771 446 760 l 482 765 z "},"2":{"ha":625,"x_min":1,"x_max":579,"o":"m 339 563 q 282 651 339 651 q 238 646 258 651 q 224 579 224 618 q 244 525 224 540 l 242 513 q 114 429 168 486 q 72 476 72 429 q 159 655 72 569 q 350 772 246 740 q 517 711 456 772 q 579 544 579 650 q 483 424 551 489 q 329 288 414 358 q 210 182 244 218 q 374 164 290 164 q 493 183 458 164 q 554 299 521 251 l 579 286 q 544 112 544 201 q 565 -8 544 22 l 551 -29 q 175 15 353 15 q 17 -17 64 15 l 1 -1 q 199 276 40 101 q 296 414 253 336 q 339 563 339 492 z "},"3":{"ha":625,"x_min":29,"x_max":583,"o":"m 375 607 q 283 611 339 611 q 196 594 228 611 q 149 518 174 549 l 119 529 q 150 674 150 607 q 133 768 150 740 l 147 783 q 422 751 218 751 q 571 760 514 751 l 583 740 q 369 488 519 607 l 369 482 q 571 315 571 482 q 474 129 571 221 q 258 -21 376 38 q 132 15 192 -15 q 40 92 72 46 l 29 107 q 171 272 128 188 l 199 257 q 193 212 193 240 q 224 140 193 183 q 293 78 256 97 q 337 165 321 110 q 353 265 353 219 q 253 389 353 389 q 210 382 231 389 l 200 413 q 375 607 324 507 z "},"4":{"ha":625,"x_min":-10,"x_max":614,"o":"m 494 192 q 503 57 494 113 q 575 14 531 31 l 568 -17 q 374 -1 486 -1 q 189 -18 263 -1 l 182 11 q 271 49 210 29 q 290 192 285 113 l -4 192 l -10 210 q 308 739 126 379 q 536 771 460 747 l 546 765 q 496 294 503 625 q 607 317 554 294 l 614 310 q 592 183 608 294 q 494 192 536 192 m 311 614 q 169 301 251 446 q 299 296 208 296 l 319 614 l 311 614 z "},"5":{"ha":625,"x_min":29,"x_max":569,"o":"m 221 486 q 360 501 276 501 q 507 457 444 501 q 569 317 569 413 q 473 128 569 222 q 258 -21 376 33 q 133 15 192 -15 q 40 92 74 46 l 29 107 q 171 272 122 179 l 199 257 q 193 212 193 240 q 225 140 193 183 q 293 78 257 97 q 337 163 321 110 q 353 269 353 217 q 327 349 353 322 q 251 376 301 376 q 146 361 201 376 l 129 371 l 147 614 q 147 657 147 625 q 131 739 147 689 l 143 758 q 261 750 183 750 q 488 782 417 750 l 501 767 q 485 677 485 739 q 514 543 485 615 l 489 533 q 446 594 474 547 q 347 611 417 611 q 226 606 276 611 l 204 472 l 208 471 l 221 486 z "},"6":{"ha":625,"x_min":42,"x_max":593,"o":"m 265 251 q 290 83 265 108 q 326 69 303 69 q 363 83 349 69 q 372 188 372 135 q 371 265 372 240 q 363 321 369 290 q 296 378 350 378 l 296 388 q 382 503 343 435 q 593 204 593 503 q 461 70 544 132 q 290 -21 378 8 q 107 45 172 -21 q 42 231 42 111 q 83 408 42 321 q 194 564 125 496 q 525 776 335 701 l 543 750 q 265 251 265 583 z "},"7":{"ha":625,"x_min":94,"x_max":578,"o":"m 419 590 q 290 599 358 599 q 190 582 222 599 q 144 506 165 532 l 119 518 q 149 663 149 590 q 132 764 149 736 l 149 782 q 404 750 219 750 q 564 761 511 750 l 578 749 q 375 43 379 386 q 450 7 418 29 l 444 -18 q 276 0 368 0 q 101 -15 183 0 l 94 10 q 165 53 128 22 q 242 311 185 194 q 419 590 300 428 z "},"8":{"ha":625,"x_min":69,"x_max":569,"o":"m 549 658 q 422 453 549 574 q 492 397 468 418 q 542 333 517 375 q 569 246 567 292 q 458 85 539 156 q 276 -21 378 15 q 127 24 185 -21 q 69 153 69 68 q 114 267 69 210 q 219 368 158 325 q 100 564 100 481 q 100 575 100 569 q 231 699 146 638 q 383 772 317 761 q 549 658 549 772 m 236 189 q 307 76 236 76 q 368 96 347 76 q 379 163 379 124 q 350 239 379 201 q 264 328 321 276 q 236 189 236 275 m 290 628 q 369 493 290 560 q 385 612 385 547 q 333 676 385 676 q 300 669 315 676 q 290 628 290 654 z "},"9":{"ha":625,"x_min":42,"x_max":593,"o":"m 369 499 q 344 667 369 642 q 309 681 332 681 q 272 667 286 681 q 263 563 263 615 q 264 485 263 510 q 272 429 265 460 q 339 372 285 372 l 339 363 q 253 247 292 315 q 42 546 42 247 q 174 680 90 618 q 344 771 257 742 q 528 705 463 771 q 593 519 593 639 q 551 342 593 429 q 439 186 510 254 q 110 -26 300 49 l 92 0 q 369 499 369 167 z "}," ":{"ha":229,"x_min":0,"x_max":0,"o":""},"!":{"ha":360,"x_min":29,"x_max":389,"o":"m 276 129 q 213 49 256 96 q 139 -21 171 1 q 78 46 110 0 q 29 129 46 92 q 87 194 44 158 q 164 249 129 231 q 276 129 224 211 m 313 988 q 324 988 318 988 q 389 892 358 954 q 197 338 254 599 l 133 331 l 156 946 q 313 988 249 988 z "},"\"":{"ha":464,"x_min":67,"x_max":464,"o":"m 92 906 q 161 926 115 917 q 220 936 207 936 q 236 936 233 936 l 258 913 q 119 522 174 754 l 67 515 l 92 906 m 297 906 q 367 926 321 917 q 426 936 413 936 q 442 936 439 936 l 464 913 q 325 522 379 754 l 272 515 l 297 906 z "},"#":{"ha":794,"x_min":51,"x_max":747,"o":"m 574 517 q 630 517 593 517 q 739 518 667 517 l 747 511 l 707 429 l 558 433 l 526 263 q 580 263 544 263 q 686 264 615 263 l 694 257 l 654 175 l 511 179 l 453 -133 l 446 -133 q 369 -99 397 -122 q 433 182 415 83 l 303 185 l 243 -133 l 236 -133 q 160 -99 188 -122 q 225 186 208 104 l 63 190 l 51 200 l 92 286 l 154 281 q 240 274 208 275 l 272 440 l 115 444 l 104 454 l 144 540 l 207 535 q 289 528 258 529 l 343 815 q 426 825 394 815 l 432 821 q 365 524 396 686 q 497 518 408 521 l 553 815 q 636 825 604 815 l 642 821 q 575 522 606 685 l 574 517 m 318 269 q 449 264 360 267 l 482 436 l 350 439 l 318 269 z "},"$":{"ha":538,"x_min":6,"x_max":536,"o":"m 168 233 q 225 110 168 169 l 240 301 q 122 378 160 350 q 54 482 54 426 q 138 604 54 538 q 314 711 221 671 l 322 817 q 367 825 354 821 l 372 821 q 357 715 364 781 q 457 700 410 700 q 522 713 504 700 l 536 697 q 444 539 472 622 l 431 535 l 394 561 l 346 593 l 338 482 q 483 369 461 408 q 496 326 496 349 q 424 156 496 247 q 260 -3 351 64 l 253 -126 l 246 -128 q 203 -107 214 -118 l 213 -18 q 101 24 156 -8 q 18 94 46 57 l 6 111 q 154 285 110 204 l 174 274 q 168 233 168 256 m 335 218 q 281 276 335 239 l 265 79 q 313 144 292 103 q 335 218 335 186 m 268 626 q 232 573 232 603 q 297 504 232 543 l 307 614 q 268 626 279 625 z "},"%":{"ha":1054,"x_min":64,"x_max":990,"o":"m 289 792 l 294 792 q 442 770 324 790 q 625 750 560 750 q 719 760 690 750 q 771 803 747 769 l 781 817 q 893 833 850 819 l 897 829 q 671 524 774 668 l 201 -144 l 194 -144 q 126 -90 150 -129 q 183 -19 144 -68 q 311 142 288 107 l 581 522 q 641 608 588 533 q 722 724 694 682 l 717 725 q 617 683 672 683 q 401 742 563 683 l 397 738 q 485 567 472 663 q 390 384 461 453 q 258 315 319 315 q 135 385 196 315 q 64 542 74 456 q 158 722 88 653 q 289 792 228 792 m 663 386 q 698 421 663 386 q 794 456 733 456 q 917 386 856 456 q 990 231 979 317 q 896 48 967 117 q 763 -21 825 -21 q 640 49 701 -21 q 569 206 579 119 q 663 386 593 317 m 229 533 q 267 372 229 392 q 318 551 318 388 q 281 735 318 715 q 229 533 229 719 m 735 197 q 772 36 735 56 q 824 215 824 51 q 786 399 824 379 q 735 197 735 383 z "},"&":{"ha":944,"x_min":29,"x_max":943,"o":"m 642 538 q 728 532 669 532 q 818 554 788 532 q 821 576 821 565 q 801 650 821 621 l 801 661 q 896 779 860 710 q 931 759 919 779 q 943 711 943 739 q 778 454 943 556 q 818 343 818 419 q 686 119 818 226 q 417 -21 554 11 q 138 51 247 -21 q 29 269 29 122 q 101 460 29 383 q 293 568 172 536 l 293 574 q 201 609 242 576 q 161 689 161 642 q 319 834 219 769 q 518 925 418 899 q 622 911 565 925 q 714 875 678 897 q 633 701 663 814 l 624 701 q 447 799 549 799 q 389 792 410 799 q 381 735 381 764 q 501 604 381 619 l 494 553 q 263 294 263 507 q 305 149 263 203 q 425 96 347 96 q 553 124 503 96 q 590 217 575 161 q 604 319 604 274 q 540 419 604 419 q 501 411 519 419 q 499 389 499 400 q 518 315 499 344 l 518 304 q 424 186 460 256 q 388 206 400 186 q 376 254 376 226 q 642 538 376 451 z "},"'":{"ha":258,"x_min":67,"x_max":258,"o":"m 92 906 q 161 926 115 917 q 220 936 207 936 q 236 936 233 936 l 258 913 q 119 522 174 754 l 67 515 l 92 906 z "},"(":{"ha":411,"x_min":57,"x_max":421,"o":"m 421 965 q 183 276 183 669 q 216 -1 183 147 q 335 -278 249 -149 l 301 -299 q 117 -22 178 -186 q 57 297 57 142 q 153 696 57 518 q 392 988 250 874 l 421 965 z "},")":{"ha":411,"x_min":-10,"x_max":354,"o":"m -10 -276 q 228 413 228 19 q 195 690 228 542 q 76 967 163 838 l 110 988 q 294 711 233 875 q 354 392 354 547 q 258 -7 354 171 q 19 -299 161 -185 l -10 -276 z "},"*":{"ha":515,"x_min":60,"x_max":453,"o":"m 293 940 l 339 949 l 342 946 q 282 800 293 872 q 385 918 344 846 l 389 918 q 400 872 394 908 q 435 876 422 876 q 453 874 447 876 q 421 826 453 863 q 429 817 422 824 q 449 793 447 800 l 447 790 q 436 790 442 790 q 299 760 372 790 q 432 729 363 729 q 443 729 438 729 l 444 726 q 413 693 442 722 q 439 646 439 660 q 419 642 433 642 q 385 646 406 642 q 368 604 376 621 l 364 604 q 276 719 335 669 q 315 572 278 643 l 314 569 l 271 581 q 240 532 251 538 q 217 582 228 539 l 174 572 l 171 575 q 231 719 218 651 q 128 603 174 678 l 124 603 l 114 647 q 78 643 92 643 q 60 646 65 643 q 90 696 61 658 l 64 729 l 65 732 q 79 732 72 732 q 214 760 151 732 q 82 789 149 789 q 71 789 76 789 l 71 792 q 100 825 75 800 q 74 874 74 864 q 92 876 79 876 q 129 872 106 876 q 144 917 143 915 l 149 917 q 236 800 182 844 q 197 946 232 879 l 200 949 q 243 940 210 949 q 272 988 263 982 q 293 940 282 982 z "},"+":{"ha":800,"x_min":79,"x_max":722,"o":"m 444 294 q 457 -14 444 118 l 360 -26 l 346 -17 l 346 294 l 90 294 l 79 304 l 92 403 q 346 393 261 394 l 346 675 l 444 688 l 451 679 q 444 393 444 494 l 444 392 q 578 390 496 390 q 714 394 660 390 l 722 386 l 710 294 l 444 294 z "},",":{"ha":306,"x_min":-7,"x_max":276,"o":"m 276 129 q 184 -71 260 29 q 14 -235 108 -171 l -7 -211 q 117 -1 94 -104 q 29 129 61 54 q 87 194 44 158 q 164 249 129 231 q 276 129 224 211 z "},"-":{"ha":417,"x_min":33,"x_max":383,"o":"m 106 414 q 372 428 256 414 l 383 421 l 375 335 l 46 314 l 33 322 l 42 414 l 106 414 z "},".":{"ha":306,"x_min":29,"x_max":276,"o":"m 276 129 q 213 49 256 96 q 139 -21 171 1 q 78 46 110 0 q 29 129 46 92 q 87 194 44 158 q 164 249 129 231 q 276 129 224 211 z "},"/":{"ha":567,"x_min":10,"x_max":557,"o":"m 89 -65 l 79 -65 q 10 -10 42 -50 q 129 238 76 118 l 333 688 q 447 965 397 829 q 550 981 500 968 l 557 975 q 450 754 496 854 l 89 -65 z "},":":{"ha":322,"x_min":29,"x_max":293,"o":"m 293 582 q 230 501 272 549 q 156 432 188 454 q 94 499 126 453 q 46 582 63 544 q 103 647 61 611 q 181 701 146 683 q 293 582 240 664 m 276 129 q 213 49 256 96 q 139 -21 171 1 q 78 46 110 0 q 29 129 46 92 q 87 194 44 158 q 164 249 129 231 q 276 129 224 211 z "},";":{"ha":322,"x_min":-7,"x_max":293,"o":"m 276 129 q 184 -71 260 29 q 14 -235 108 -171 l -7 -211 q 117 -1 94 -104 q 29 129 61 54 q 87 194 44 158 q 164 249 129 231 q 276 129 224 211 m 293 582 q 230 501 272 549 q 156 432 188 454 q 94 499 126 453 q 46 582 63 544 q 103 647 61 611 q 181 701 146 683 q 293 582 240 664 z "},"<":{"ha":800,"x_min":76,"x_max":724,"o":"m 688 63 q 76 308 367 222 l 96 397 q 351 488 174 421 q 690 638 529 556 l 724 546 l 717 532 l 232 353 l 232 347 l 717 169 l 724 156 l 688 63 z "},"=":{"ha":800,"x_min":78,"x_max":721,"o":"m 90 289 q 492 276 325 276 q 713 281 658 276 l 721 272 l 708 188 l 89 188 l 78 197 l 90 289 m 90 510 q 492 497 325 497 q 713 501 658 497 l 721 493 l 708 408 l 89 408 l 78 418 l 90 510 z "},">":{"ha":800,"x_min":76,"x_max":724,"o":"m 724 308 q 113 63 433 222 l 76 156 l 83 169 l 568 347 l 568 353 l 83 532 l 76 546 l 110 638 q 449 488 271 556 q 704 397 626 421 l 724 308 z "},"?":{"ha":438,"x_min":8,"x_max":490,"o":"m 126 569 q 217 676 181 613 q 254 806 254 740 q 203 872 254 872 q 163 865 181 872 q 150 806 150 840 q 169 756 150 772 l 167 744 q 43 664 89 710 q 8 706 8 664 q 85 877 8 801 q 268 988 161 953 q 428 932 367 988 q 490 781 490 876 q 447 732 464 747 q 421 707 431 717 q 394 683 411 697 q 367 663 376 669 q 338 642 358 656 l 310 622 q 280 600 303 617 q 251 581 257 583 q 224 459 238 540 q 206 361 210 378 l 119 347 l 126 569 m 276 129 q 213 49 256 96 q 139 -21 171 1 q 78 46 110 0 q 29 129 46 92 q 89 203 46 160 q 164 263 132 246 q 276 129 210 235 z "},"@":{"ha":1185,"x_min":42,"x_max":1143,"o":"m 856 268 q 867 81 856 143 q 992 278 949 153 q 1036 521 1036 403 q 939 781 1036 696 q 675 867 842 867 q 411 814 508 867 q 222 528 290 708 q 153 180 153 349 q 242 -84 153 11 q 490 -179 332 -179 q 661 -147 581 -179 l 669 -167 q 474 -264 547 -247 q 155 -161 268 -264 q 42 142 42 -58 q 205 681 42 458 q 663 951 368 904 q 1011 856 879 951 q 1143 565 1143 761 q 1040 202 1143 368 q 764 -21 938 36 q 658 229 658 -6 q 591 236 633 236 q 518 229 549 236 q 496 92 496 142 q 504 0 496 42 q 272 -17 367 0 l 258 -7 l 504 671 q 444 703 460 692 l 451 728 q 664 715 533 715 q 886 731 794 715 l 892 725 q 856 268 856 571 m 536 322 q 598 315 553 315 q 661 324 643 315 q 667 499 667 419 q 663 638 667 578 q 645 642 656 642 q 628 640 635 642 q 616 631 621 638 q 608 619 611 624 q 601 604 604 615 q 596 589 597 593 q 589 554 589 564 l 536 322 z "},"A":{"ha":810,"x_min":-4,"x_max":732,"o":"m 256 932 q 508 904 381 904 q 724 919 635 904 l 732 913 q 699 638 713 831 q 685 263 685 446 q 700 0 685 81 q 440 -21 514 -6 l 432 -14 q 469 296 457 96 q 410 304 440 304 q 354 304 379 304 q 294 296 329 304 q 265 113 265 178 q 275 -1 265 47 q 15 -21 126 -1 l -1 -10 l 274 794 q 349 815 306 806 l 350 825 q 121 779 169 825 q 118 757 118 768 q 138 683 118 713 l 138 672 q 43 554 79 624 q 8 575 19 554 q -4 624 -4 596 q 69 810 -4 729 q 256 932 143 890 m 314 401 q 393 392 339 392 q 474 403 447 392 q 481 653 481 553 q 475 821 481 753 q 451 825 469 825 q 424 821 432 825 q 382 699 399 783 l 314 401 z "},"B":{"ha":794,"x_min":-103,"x_max":765,"o":"m 490 904 q 719 740 719 904 q 542 511 719 592 l 542 506 q 705 463 644 506 q 765 329 765 421 q 727 210 765 268 q 626 108 689 151 q 364 -21 504 22 l 319 -10 q 176 15 224 15 q 101 10 129 15 l 93 28 q 132 138 122 58 q 157 540 157 371 q 151 779 157 708 q 226 800 183 790 l 228 810 q 22 765 69 810 q 19 743 19 754 q 39 669 19 699 l 39 658 q -56 540 -19 610 q -91 560 -79 540 q -103 608 -103 581 q -27 794 -103 714 q 163 917 49 875 q 490 904 226 904 m 460 814 q 422 824 446 824 q 379 815 397 824 q 360 267 360 569 q 363 119 360 236 q 437 101 393 101 q 508 124 481 101 q 531 285 531 190 q 504 426 531 381 q 389 472 478 472 l 394 524 q 450 536 429 526 q 488 699 488 603 q 460 814 488 792 z "},"C":{"ha":647,"x_min":42,"x_max":667,"o":"m 375 -160 q 124 -47 206 -160 q 42 271 42 67 q 140 646 42 475 q 429 925 238 817 q 558 904 486 904 q 657 913 631 904 l 667 893 q 608 750 629 843 q 586 583 586 657 l 563 583 q 536 689 549 619 l 507 711 q 350 792 400 792 q 274 311 274 632 q 301 86 274 192 q 350 -6 317 29 q 431 -40 383 -40 q 468 133 468 26 q 464 176 468 158 l 474 183 q 647 199 564 185 q 549 -9 626 92 q 375 -160 472 -110 z "},"D":{"ha":856,"x_min":-103,"x_max":814,"o":"m 469 904 q 733 812 653 904 q 814 524 814 719 q 690 181 814 329 q 365 -21 565 33 l 322 -10 q 178 15 226 15 q 101 10 129 15 l 93 28 q 132 138 122 58 q 157 540 157 371 q 151 779 157 708 q 226 800 183 790 l 228 810 q 22 765 69 810 q 19 743 19 754 q 39 669 19 699 l 39 658 q -56 540 -19 610 q -91 560 -79 540 q -103 608 -103 581 q -27 794 -103 714 q 163 917 49 875 q 469 904 226 904 m 368 114 q 442 101 389 101 q 528 131 494 101 q 571 283 556 190 q 586 446 586 376 q 585 553 586 515 q 576 647 583 590 q 553 738 568 704 q 509 798 539 772 q 443 824 479 824 q 386 815 407 824 q 361 267 361 554 q 368 114 361 183 z "},"E":{"ha":789,"x_min":19,"x_max":747,"o":"m 747 278 q 628 55 747 158 q 364 -100 510 -49 q 112 -26 204 -100 q 19 171 19 47 q 96 375 19 294 q 292 481 172 456 q 354 474 308 481 l 356 483 q 136 661 136 526 q 296 824 206 751 q 479 925 386 897 q 690 875 606 925 q 610 679 631 786 l 597 679 q 503 759 547 731 q 407 788 460 788 q 367 783 388 788 q 358 728 358 763 q 392 579 358 631 q 514 515 426 528 l 506 463 q 318 401 383 463 q 253 218 253 339 q 291 78 253 135 q 397 22 329 22 q 493 43 465 22 q 542 231 542 111 q 530 313 542 283 q 479 343 518 343 q 457 340 468 343 q 453 307 453 325 q 483 221 453 251 l 483 210 q 389 108 426 176 q 340 196 340 108 q 415 373 340 307 q 610 450 490 439 q 715 392 682 432 q 747 278 747 351 z "},"F":{"ha":683,"x_min":-103,"x_max":713,"o":"m 163 917 q 468 900 300 900 q 696 940 636 900 l 713 925 q 643 676 646 825 l 619 676 q 594 806 600 738 q 513 793 571 793 q 389 804 456 793 q 361 532 371 679 q 453 526 388 526 q 590 550 519 526 l 597 542 q 576 425 589 518 q 426 439 479 439 q 357 436 372 439 q 353 218 353 342 q 374 0 353 94 q 114 -21 189 -6 l 106 -14 q 140 258 125 69 q 154 586 154 446 q 151 779 154 726 q 226 800 183 790 l 228 810 q 22 765 69 810 q 19 743 19 754 q 39 669 19 699 l 39 658 q -56 540 -19 610 q -91 560 -79 540 q -103 608 -103 581 q -27 794 -103 714 q 163 917 49 875 z "},"G":{"ha":756,"x_min":42,"x_max":694,"o":"m 42 325 q 429 925 42 703 q 572 904 486 904 q 685 913 658 904 l 694 893 q 635 750 657 843 q 614 583 614 657 l 590 583 q 564 689 576 619 l 535 711 q 350 792 428 792 q 294 594 315 711 q 274 403 274 478 q 281 282 274 328 q 303 192 288 236 q 352 124 319 149 q 431 99 385 99 q 472 131 449 107 l 475 251 q 467 344 475 299 q 368 381 422 356 l 371 410 q 469 401 422 401 q 671 446 579 401 l 685 436 q 664 356 668 400 q 638 -68 640 157 q 456 -212 571 -146 q 249 -278 340 -278 q 158 -224 158 -278 q 276 -119 239 -183 l 288 -119 q 371 -160 328 -160 q 429 -151 414 -160 q 471 46 467 -86 q 375 -21 425 6 q 131 73 219 -21 q 42 325 42 167 z "},"H":{"ha":940,"x_min":-103,"x_max":1168,"o":"m 946 1074 q 897 1065 919 1074 q 854 904 867 1014 q 815 316 815 561 q 831 0 815 71 q 571 -21 653 -6 l 563 -14 q 607 438 597 142 q 483 447 549 447 q 360 438 418 447 q 351 235 351 376 q 372 0 351 94 q 113 -21 188 -6 l 104 -14 q 138 264 124 68 q 153 571 153 460 q 150 779 153 682 q 226 800 179 789 l 228 810 q 22 765 69 810 q 19 743 19 754 q 39 669 19 699 l 39 658 q -56 540 -19 610 q -91 560 -79 540 q -103 608 -103 581 q -27 794 -103 714 q 163 917 49 875 q 274 907 208 907 q 397 922 339 907 l 406 915 q 364 549 379 799 q 490 535 424 535 q 610 547 556 535 q 613 646 613 617 q 596 901 613 828 q 830 1101 693 1011 q 1079 1192 967 1192 q 1168 1138 1168 1192 q 1050 1033 1088 1097 l 1039 1033 q 946 1074 999 1074 z "},"I":{"ha":478,"x_min":-103,"x_max":406,"o":"m 406 915 q 368 629 385 831 q 351 261 351 428 q 372 0 351 94 q 113 -21 188 -6 l 104 -14 q 138 264 124 68 q 153 571 153 460 q 150 779 153 682 q 226 800 179 789 l 228 810 q 22 765 69 810 q 19 743 19 754 q 39 669 19 699 l 39 658 q -56 540 -19 610 q -91 560 -79 540 q -103 608 -103 581 q -27 794 -103 714 q 163 917 49 875 q 274 907 208 907 q 397 922 339 907 l 406 915 z "},"J":{"ha":478,"x_min":-103,"x_max":406,"o":"m 406 915 q 367 615 383 813 q 351 272 351 418 q 379 18 351 125 q 200 -147 307 -68 q -19 -279 93 -226 l -36 -257 q 92 -58 56 -169 q 153 635 153 132 q 150 779 153 682 q 226 800 179 789 l 228 810 q 22 765 69 810 q 19 743 19 754 q 39 669 19 699 l 39 658 q -56 540 -19 610 q -91 560 -79 540 q -103 608 -103 581 q -27 794 -103 714 q 163 917 49 875 q 274 907 208 907 q 397 922 339 907 l 406 915 z "},"K":{"ha":831,"x_min":-103,"x_max":1186,"o":"m 353 388 q 351 219 351 343 q 372 0 351 94 q 113 -21 188 -6 l 104 -14 q 138 264 124 68 q 153 571 153 460 q 150 779 153 682 q 226 800 179 789 l 228 810 q 22 765 69 810 q 19 743 19 754 q 39 669 19 699 l 39 658 q -56 540 -19 610 q -91 560 -79 540 q -103 608 -103 581 q -27 794 -103 714 q 163 917 49 875 q 274 907 208 907 q 397 922 339 907 l 406 915 q 356 465 372 776 l 443 567 q 549 856 549 686 q 546 897 549 864 l 556 904 q 819 917 715 904 q 713 713 783 814 q 554 535 642 611 q 901 -61 776 40 q 950 -69 925 -69 q 1046 -21 1010 -69 l 1057 -21 q 1186 -119 1103 -86 q 1097 -174 1186 -174 q 822 -114 982 -174 q 551 15 661 -54 q 401 424 507 226 l 353 388 z "},"L":{"ha":724,"x_min":-103,"x_max":733,"o":"m 406 915 q 368 635 385 829 q 351 305 351 440 q 363 92 351 169 q 428 86 390 86 q 608 146 554 86 q 611 168 611 157 q 592 242 611 213 l 592 253 q 686 371 650 301 q 722 350 710 371 q 733 301 733 329 q 665 110 733 203 q 501 -21 597 18 q 328 0 443 0 q 113 -21 213 0 l 104 -14 q 138 264 124 68 q 153 571 153 460 q 150 779 153 682 q 226 800 179 789 l 228 810 q 22 765 69 810 q 19 743 19 754 q 39 669 19 699 l 39 658 q -56 540 -19 610 q -91 560 -79 540 q -103 608 -103 581 q -27 794 -103 714 q 163 917 49 875 q 274 907 208 907 q 397 922 339 907 l 406 915 z "},"M":{"ha":1029,"x_min":-85,"x_max":942,"o":"m 440 853 q 488 538 440 754 l 517 401 l 526 404 q 525 447 525 419 q 536 517 525 475 l 626 828 q 635 872 635 854 q 631 899 635 890 l 635 908 q 764 904 661 904 q 932 924 867 904 l 942 917 q 911 439 911 756 q 940 0 911 122 q 689 -21 728 -12 l 679 -14 q 711 450 711 157 q 696 699 711 568 l 690 699 q 575 271 588 381 q 571 169 571 226 q 514 154 558 165 q 381 110 406 126 l 364 121 q 367 167 367 151 q 269 689 367 322 l 264 688 q 200 0 203 321 q 10 -19 78 -3 l 1 -12 q 97 359 42 107 q 174 779 151 611 q 250 800 203 789 l 251 810 q 40 765 88 810 q 38 743 38 754 q 57 669 38 699 l 57 658 q -37 540 -1 610 q -73 560 -61 540 q -85 608 -85 581 q -9 794 -85 714 q 181 917 67 875 q 308 907 226 907 q 442 925 389 907 l 449 918 q 440 853 440 889 z "},"N":{"ha":890,"x_min":-103,"x_max":836,"o":"m 836 918 q 801 648 817 833 q 786 292 786 463 q 807 0 786 122 q 738 -4 799 -1 q 549 -18 567 -12 l 539 -14 q 315 565 467 236 q 256 674 281 640 l 250 671 q 263 239 250 425 q 286 0 275 53 q 114 -21 169 -7 l 106 -14 q 139 263 125 68 q 153 569 153 457 q 150 779 153 682 q 226 800 179 789 l 228 810 q 22 765 69 810 q 19 743 19 754 q 39 669 19 699 l 39 658 q -56 540 -19 610 q -91 560 -79 540 q -103 608 -103 581 q -27 794 -103 714 q 163 917 49 875 q 284 907 208 907 q 418 922 360 907 l 426 915 q 513 619 450 793 q 640 332 576 444 l 688 249 l 692 250 q 679 673 692 496 q 656 904 667 850 q 828 925 774 911 l 836 918 z "},"O":{"ha":817,"x_min":42,"x_max":775,"o":"m 275 392 q 190 564 190 436 q 263 789 190 692 q 450 925 336 886 q 775 574 775 925 q 658 211 775 385 q 368 -21 542 38 q 128 75 214 -21 q 42 325 42 171 q 114 619 42 479 q 182 726 146 681 l 203 717 q 167 572 167 649 q 274 354 167 422 q 305 170 274 246 q 400 94 336 94 q 468 110 442 94 q 524 313 506 185 q 543 550 543 442 q 417 808 543 808 q 347 793 374 808 q 299 606 299 725 q 310 523 299 553 q 361 493 322 493 q 383 496 372 493 q 388 529 388 511 q 357 615 388 585 l 357 626 q 451 728 418 668 q 501 637 501 728 q 440 480 501 546 q 275 392 378 414 z "},"P":{"ha":775,"x_min":-103,"x_max":774,"o":"m 108 -14 q 142 258 128 69 q 157 577 157 446 q 151 779 157 708 q 226 800 183 790 l 228 810 q 22 765 69 810 q 19 743 19 754 q 39 669 19 699 l 39 658 q -56 540 -19 610 q -91 560 -79 540 q -103 608 -103 581 q -27 794 -103 714 q 163 917 49 875 q 483 904 226 904 q 699 860 624 904 q 774 700 774 817 q 661 485 774 560 q 389 410 549 410 l 393 461 q 539 658 539 461 q 444 824 539 824 q 383 815 413 824 q 356 257 356 621 q 376 0 356 94 q 117 -21 192 -6 l 108 -14 z "},"Q":{"ha":817,"x_min":-18,"x_max":976,"o":"m 15 331 q 129 690 15 524 q 424 925 243 857 q 749 574 749 925 q 633 214 749 386 q 342 -21 518 42 q 154 -114 206 -69 l 161 -122 q 342 -62 242 -71 q 543 -150 410 -75 q 753 -225 676 -225 q 794 -192 781 -225 q 808 -121 808 -160 l 814 -111 q 960 -69 888 -107 q 976 -100 976 -82 q 886 -215 976 -157 q 689 -306 796 -272 q 517 -339 582 -339 q 338 -217 439 -268 q 154 -167 236 -167 q 8 -231 72 -167 l -18 -210 q 236 -6 88 -79 q 72 115 128 22 q 15 331 15 207 m 517 550 q 390 808 517 808 q 321 793 347 808 q 247 354 247 606 q 278 170 247 246 q 374 94 310 94 q 442 110 415 94 q 498 313 479 185 q 517 550 517 442 z "},"R":{"ha":849,"x_min":-103,"x_max":868,"o":"m 108 -14 q 142 258 128 69 q 157 577 157 446 q 151 779 157 708 q 226 800 183 790 l 228 810 q 22 765 69 810 q 19 743 19 754 q 39 669 19 699 l 39 658 q -56 540 -19 610 q -91 560 -79 540 q -103 608 -103 581 q -27 794 -103 714 q 163 917 49 875 q 478 904 226 904 q 751 800 696 904 q 774 699 774 760 q 600 460 774 542 q 707 260 618 422 q 868 0 796 97 q 599 -21 719 -3 l 589 -18 q 526 175 574 51 q 418 415 479 299 l 383 415 l 388 467 q 499 514 460 467 q 539 657 539 561 q 444 824 539 824 q 383 815 413 824 q 356 257 356 621 q 376 0 356 94 q 117 -21 192 -6 l 108 -14 z "},"S":{"ha":642,"x_min":-29,"x_max":614,"o":"m 143 165 q 184 40 143 93 q 294 -31 225 -12 q 380 83 339 8 q 421 205 421 157 q 384 293 421 253 q 294 365 347 333 q 189 431 242 397 q 61 592 61 507 q 146 783 61 676 q 318 925 231 889 q 483 904 394 904 q 606 915 571 904 l 614 897 q 556 765 576 847 q 535 613 535 683 l 511 613 q 483 718 494 654 l 442 743 q 254 801 347 801 q 239 747 239 786 q 277 667 239 707 q 369 594 315 626 q 476 528 422 561 q 607 368 607 450 q 496 82 607 239 q 258 -160 385 -75 q 52 -99 133 -160 q -29 76 -29 -37 q 103 241 19 168 q 257 314 186 314 q 346 260 346 314 q 269 156 300 217 l 258 156 q 179 196 228 196 q 146 192 161 196 q 143 165 143 178 z "},"T":{"ha":733,"x_min":19,"x_max":786,"o":"m 422 911 q 626 899 578 899 q 690 904 674 899 q 768 978 735 950 l 786 969 q 721 764 739 881 l 689 774 q 542 796 639 788 q 507 315 507 535 q 528 0 507 94 q 268 -21 343 -6 l 260 -14 q 294 264 279 68 q 308 573 308 460 q 306 786 308 686 q 379 801 344 797 l 381 811 q 304 813 347 813 q 219 805 261 813 q 144 767 176 797 q 142 744 142 756 q 161 671 142 700 l 161 660 q 67 542 103 611 q 31 563 43 542 q 19 611 19 583 q 88 801 19 718 q 265 925 157 885 l 422 911 z "},"U":{"ha":904,"x_min":-103,"x_max":826,"o":"m 132 285 l 153 635 q 150 779 153 682 q 226 800 179 789 l 228 810 q 22 765 69 810 q 19 743 19 754 q 39 669 19 699 l 39 658 q -56 540 -19 610 q -91 560 -79 540 q -103 608 -103 581 q -27 794 -103 714 q 163 917 49 875 q 272 907 208 907 q 394 922 336 907 l 403 915 q 366 666 382 822 q 350 413 350 510 q 351 281 350 315 q 360 204 353 247 q 428 111 374 122 q 564 278 515 174 q 574 635 574 439 q 558 901 574 831 q 818 922 744 907 l 826 915 q 791 621 804 815 q 778 249 778 426 q 793 0 778 71 q 551 -21 611 -8 l 542 -14 q 578 174 568 86 l 572 175 q 379 -21 494 31 q 188 58 243 -18 q 132 285 132 135 z "},"V":{"ha":781,"x_min":-101,"x_max":775,"o":"m 542 714 q 499 869 542 831 l 499 882 q 688 958 617 914 q 775 769 775 914 q 424 -18 775 408 l 411 -21 l 364 1 q 314 26 351 7 q 256 53 276 44 q 154 79 193 79 q 97 74 115 79 l 90 93 q 135 200 128 124 q 154 560 154 438 q 151 779 154 682 q 228 800 181 789 l 229 810 q 24 765 71 810 q 21 743 21 754 q 40 669 21 699 l 40 658 q -54 540 -18 610 q -90 560 -78 540 q -101 608 -101 581 q -26 794 -101 714 q 164 917 50 875 q 275 907 210 907 q 399 922 340 907 l 407 915 q 353 267 358 700 q 354 185 353 215 q 438 117 381 140 q 542 714 542 411 z "},"W":{"ha":1122,"x_min":-101,"x_max":1165,"o":"m 542 714 q 469 892 542 867 l 472 911 q 713 904 579 904 q 967 922 847 904 q 1153 976 1088 940 l 1165 961 q 1081 892 1139 929 q 1103 769 1103 849 q 1003 350 1103 563 q 746 -18 904 138 l 733 -21 l 686 1 q 522 114 585 47 q 424 -18 476 46 l 411 -21 l 364 1 q 212 67 256 56 q 142 79 168 79 q 97 74 115 79 l 90 93 q 135 200 128 124 q 154 560 154 438 q 151 779 154 682 q 228 800 181 789 l 229 810 q 24 765 71 810 q 21 743 21 754 q 40 669 21 699 l 40 658 q -54 540 -18 610 q -90 560 -78 540 q -101 608 -101 581 q -26 794 -101 714 q 164 917 50 875 q 275 907 210 907 q 399 922 340 907 l 407 915 q 353 267 358 700 q 354 185 353 215 q 438 117 381 140 q 542 714 542 411 m 869 714 q 847 828 869 792 q 769 864 825 864 q 736 861 767 864 q 747 769 747 843 q 626 294 747 540 q 688 185 642 246 q 774 117 735 125 q 869 714 869 388 z "},"X":{"ha":758,"x_min":-96,"x_max":760,"o":"m 463 563 q 521 710 494 625 q 547 837 547 796 q 540 897 547 878 l 546 904 q 760 925 678 904 q 696 750 756 846 q 600 613 638 657 q 529 531 563 569 q 490 485 496 492 q 610 240 539 364 q 760 0 688 97 q 463 -21 581 -3 l 453 -18 q 335 364 374 254 q 274 197 301 290 q 247 65 247 103 q 254 8 247 28 l 249 1 q 35 -19 117 1 q 91 139 39 44 q 190 294 143 233 q 307 439 236 356 q 203 664 261 551 q 135 779 197 672 q 211 800 164 789 l 213 810 q 29 765 76 810 q 26 743 26 754 q 46 669 26 699 l 46 658 q -49 540 -12 610 q -84 560 -72 540 q -96 608 -96 581 q -23 792 -96 710 q 156 917 50 875 q 265 906 204 906 q 358 914 325 906 l 365 907 q 463 563 408 721 z "},"Y":{"ha":731,"x_min":-287,"x_max":732,"o":"m 435 515 q 492 683 464 572 q 519 835 519 793 q 513 897 519 878 l 518 904 q 732 925 650 904 q 649 699 726 829 q 476 454 572 569 q 469 226 469 358 q 490 0 469 94 q 231 -21 306 -6 l 222 -14 q 269 408 260 140 q 186 607 240 475 q 108 794 132 739 q -37 1010 42 947 q -75 1017 -58 1017 q -172 963 -135 1017 l -183 963 q -287 1067 -228 1036 q -199 1121 -287 1121 q 47 1049 -110 1121 q 338 896 203 976 q 435 515 349 785 z "},"Z":{"ha":625,"x_min":-62,"x_max":932,"o":"m 361 949 q 519 904 431 904 q 653 944 607 904 l 675 931 q 572 771 650 899 q 429 521 493 643 l 250 182 q 367 108 300 168 q 489 -13 435 49 q 604 -125 543 -75 q 708 -175 665 -175 q 750 -142 736 -175 q 764 -71 764 -110 l 769 -61 q 915 -19 843 -57 q 932 -50 932 -32 q 837 -171 932 -112 q 630 -259 742 -229 q 444 -289 518 -289 q 266 -52 340 -126 q 110 22 192 22 q -36 -42 28 22 l -62 -21 q 160 306 25 83 l 394 690 l 390 694 q 358 683 381 689 q 315 706 333 696 q 283 721 297 715 q 233 731 260 731 q 194 654 194 731 q 197 618 194 640 l 193 608 q 57 542 118 589 q 35 581 35 553 q 153 783 35 658 q 361 949 272 907 z "},"[":{"ha":444,"x_min":89,"x_max":461,"o":"m 338 -268 q 99 -289 186 -268 l 89 -282 q 144 306 111 -185 q 178 877 178 797 q 176 971 178 957 l 188 978 q 424 957 271 957 q 461 957 442 957 l 458 922 q 288 894 385 919 l 210 -204 q 376 -233 306 -231 l 375 -268 q 338 -268 356 -268 z "},"\\":{"ha":394,"x_min":10,"x_max":385,"o":"m 304 -67 l 294 -67 l 104 639 q 10 964 49 842 q 103 1003 69 983 l 111 1003 q 186 667 144 825 l 304 249 q 385 -15 336 129 q 304 -67 356 -46 z "},"]":{"ha":444,"x_min":-17,"x_max":356,"o":"m 107 957 q 346 978 258 957 l 356 971 q 300 383 333 874 q 267 -188 267 -108 q 268 -282 267 -268 l 257 -289 q 21 -268 174 -268 q -17 -268 3 -268 l -14 -233 q 157 -206 60 -231 l 235 893 q 68 922 139 919 l 69 957 q 107 957 89 957 z "},"^":{"ha":719,"x_min":63,"x_max":657,"o":"m 360 764 l 110 386 l 63 411 q 194 658 143 554 q 321 953 244 763 l 394 967 q 526 660 474 772 q 657 411 579 549 l 610 386 l 360 764 z "},"_":{"ha":921,"x_min":10,"x_max":911,"o":"m 65 -174 q 540 -190 278 -190 q 899 -182 801 -190 l 911 -193 l 856 -269 l 25 -269 l 10 -256 l 65 -174 z "},"`":{"ha":386,"x_min":-56,"x_max":331,"o":"m -8 1035 q 27 1038 7 1038 q 67 1036 47 1038 q 331 788 129 921 l 311 754 l -56 900 q -38 972 -54 922 q -8 1035 -22 1021 z "},"a":{"ha":731,"x_min":-10,"x_max":657,"o":"m 411 238 q 339 244 383 244 q 264 238 294 244 q 240 93 240 146 q 249 -4 240 40 q 4 -21 104 -4 l -10 -11 l 249 703 q 186 736 207 721 l 193 763 q 417 750 279 750 q 650 765 554 750 l 657 760 q 629 531 640 692 q 618 215 618 369 q 631 -4 618 61 q 386 -21 476 -4 l 379 -15 q 411 238 401 83 m 282 336 q 347 328 304 328 q 414 338 390 328 q 419 520 419 438 q 415 668 419 603 q 393 672 408 672 q 368 668 378 672 q 338 579 353 644 l 282 336 z "},"b":{"ha":713,"x_min":57,"x_max":683,"o":"m 58 750 l 426 763 q 538 753 493 763 q 614 713 582 744 q 646 626 646 682 q 468 428 646 500 l 468 424 q 626 390 569 424 q 683 271 683 357 q 646 171 683 219 q 547 86 608 122 q 321 -21 436 18 l 283 -11 q 157 7 217 7 q 75 1 97 7 l 67 19 q 100 110 92 47 q 121 465 121 306 q 113 704 121 625 q 57 724 79 713 l 58 750 m 318 224 l 319 104 q 383 89 344 89 q 442 104 421 89 q 461 235 461 156 q 438 353 461 315 q 342 392 414 392 l 347 440 q 394 451 376 443 q 425 596 425 508 q 372 683 425 683 q 333 676 351 683 q 318 224 318 471 z "},"c":{"ha":581,"x_min":39,"x_max":590,"o":"m 39 267 q 389 767 39 569 q 495 750 435 750 q 581 758 556 750 l 590 740 q 542 622 560 699 q 524 483 524 544 l 497 483 q 476 560 483 522 l 454 578 q 319 644 374 644 q 260 313 260 501 q 390 90 260 90 q 418 229 418 146 q 415 269 418 250 l 424 275 q 586 289 518 278 q 502 110 569 194 q 344 -21 435 25 q 120 53 201 -21 q 39 267 39 128 z "},"d":{"ha":764,"x_min":57,"x_max":725,"o":"m 58 750 l 407 763 q 648 685 571 763 q 725 438 725 607 q 612 148 725 269 q 324 -21 499 26 l 288 -11 q 158 7 218 7 q 76 1 99 7 l 68 19 q 101 110 93 47 q 122 455 122 271 q 113 704 122 639 q 57 724 79 713 l 58 750 m 326 99 q 390 89 343 89 q 463 110 436 89 q 507 383 507 211 q 495 571 507 536 q 469 633 483 606 q 383 685 444 685 q 340 676 358 685 q 319 307 319 457 q 326 99 319 157 z "},"e":{"ha":578,"x_min":29,"x_max":582,"o":"m 451 603 q 443 611 451 603 q 403 635 435 618 q 349 651 372 651 q 308 647 325 651 q 301 601 301 633 q 338 479 301 518 q 460 433 375 440 l 453 379 q 306 338 361 379 q 251 213 251 296 q 280 125 251 157 q 358 93 308 93 q 432 111 408 93 q 439 169 439 135 q 419 225 439 204 l 422 235 q 539 308 500 260 q 581 254 581 300 q 504 90 581 167 q 329 -21 428 14 q 75 67 156 -21 q 29 185 29 114 q 103 337 29 281 q 288 404 176 393 l 288 408 q 144 444 203 408 q 86 551 86 481 q 403 772 226 715 q 582 729 510 772 q 513 556 535 657 l 500 556 q 451 603 467 589 z "},"f":{"ha":593,"x_min":61,"x_max":613,"o":"m 63 763 q 330 750 161 750 q 606 768 499 750 l 613 756 q 558 572 565 701 l 533 572 q 515 651 522 603 q 415 674 463 674 q 344 668 367 674 q 324 447 331 560 q 403 442 351 442 q 517 461 456 442 l 524 454 q 503 344 510 421 q 380 357 421 357 q 319 353 339 357 q 317 184 317 301 q 333 -4 317 67 q 89 -21 175 -4 l 82 -15 q 110 217 99 53 q 122 511 122 381 q 117 714 122 642 q 61 736 86 722 l 63 763 z "},"g":{"ha":696,"x_min":39,"x_max":636,"o":"m 39 267 q 388 767 39 565 q 515 750 431 750 q 626 758 600 750 l 636 740 q 580 622 601 697 q 556 483 558 547 l 529 483 q 508 560 515 525 l 485 579 q 318 644 404 644 q 274 484 290 578 q 257 306 257 390 q 288 157 257 222 q 389 92 318 92 q 425 118 400 96 l 428 208 q 419 285 428 247 q 349 308 378 296 l 354 338 q 421 333 388 333 q 614 372 525 333 l 628 360 q 589 -86 593 276 q 421 -212 529 -147 q 236 -278 313 -278 q 176 -267 203 -278 q 150 -233 150 -257 q 258 -135 221 -196 l 271 -135 q 344 -168 307 -168 q 392 -161 381 -168 q 424 36 421 -106 q 344 -21 397 15 q 120 54 201 -21 q 39 267 39 129 z "},"h":{"ha":847,"x_min":61,"x_max":774,"o":"m 322 356 q 315 188 315 301 q 333 -3 315 75 q 86 -21 168 -3 l 79 -15 q 109 219 96 56 q 122 507 122 382 q 117 704 122 632 q 61 724 83 713 l 63 750 q 354 765 249 750 l 361 760 q 326 460 339 664 q 431 447 378 447 q 531 458 485 447 q 533 535 533 517 q 519 747 533 690 q 767 765 686 747 l 774 760 q 743 511 756 675 q 731 199 731 347 q 743 -3 731 51 q 499 -21 586 -3 l 492 -15 q 529 356 519 113 q 426 364 476 364 q 322 356 375 364 z "},"i":{"ha":435,"x_min":61,"x_max":361,"o":"m 361 760 q 330 520 344 688 q 315 214 315 353 q 333 -3 315 75 q 86 -21 168 -3 l 79 -15 q 109 219 96 56 q 122 507 122 382 q 117 704 122 632 q 61 724 83 713 l 63 750 q 354 765 246 750 l 361 760 z "},"j":{"ha":446,"x_min":-47,"x_max":374,"o":"m 374 760 q 341 506 354 671 q 328 207 328 342 q 351 -21 328 72 q -31 -279 242 -137 l -47 -254 q 72 -85 38 -174 q 114 150 107 4 q 128 533 128 435 q 122 704 128 632 q 67 724 89 713 l 68 750 q 367 765 258 750 l 374 760 z "},"k":{"ha":742,"x_min":61,"x_max":751,"o":"m 481 706 q 478 744 481 717 l 486 750 q 733 761 644 750 q 507 449 678 600 q 638 184 569 310 q 751 -3 706 58 q 499 -21 601 -6 l 490 -18 q 358 344 456 163 l 317 314 l 317 211 q 333 -3 317 68 q 89 -21 142 -10 l 82 -15 q 110 216 99 54 q 122 505 122 378 q 117 704 122 632 q 61 724 83 713 l 63 750 q 354 765 249 750 l 361 760 q 319 390 333 646 l 393 475 q 481 706 481 575 z "},"l":{"ha":549,"x_min":61,"x_max":547,"o":"m 361 760 q 330 525 344 685 q 315 256 315 365 q 324 85 315 147 q 415 79 351 79 q 540 103 478 79 l 547 94 q 525 -18 528 35 q 299 -3 429 -3 q 89 -21 168 -3 l 82 -15 q 110 219 97 56 q 122 507 122 382 q 117 704 122 632 q 61 724 83 713 l 63 750 q 354 765 246 750 l 361 760 z "},"m":{"ha":940,"x_min":10,"x_max":871,"o":"m 414 707 q 453 444 414 632 l 476 332 l 485 335 q 483 369 483 347 q 493 426 483 392 l 568 686 q 575 725 575 711 q 571 746 575 739 l 578 757 q 713 750 615 750 q 863 767 810 750 l 871 761 q 846 363 846 628 q 869 -3 846 97 q 632 -21 708 -3 l 624 -15 q 650 372 650 124 q 638 579 650 478 l 633 579 q 538 225 549 319 q 533 142 533 189 q 338 85 388 117 l 322 93 q 325 132 325 118 q 244 571 325 258 l 239 569 q 186 -3 189 272 q 17 -19 83 -3 l 10 -14 q 99 345 47 104 q 161 704 151 586 q 106 724 128 713 l 107 750 q 414 768 307 750 l 421 760 q 414 707 414 732 z "},"n":{"ha":847,"x_min":61,"x_max":774,"o":"m 638 215 q 613 750 638 621 q 767 767 700 750 l 774 761 q 742 533 756 688 q 728 238 728 378 q 746 -4 728 99 q 492 -18 581 -4 l 483 -15 q 375 246 457 75 q 269 467 293 417 q 224 547 246 517 l 219 546 q 249 -4 219 147 q 94 -21 164 -4 l 88 -15 q 115 214 104 53 q 126 499 126 375 q 115 704 126 624 q 61 724 85 711 l 63 750 q 393 768 281 750 q 596 283 425 582 l 635 215 l 638 215 z "},"o":{"ha":747,"x_min":39,"x_max":708,"o":"m 39 274 q 140 570 39 440 q 410 771 240 700 q 630 694 551 771 q 708 465 708 617 q 604 177 708 314 q 339 -21 500 40 q 123 61 207 -21 q 39 274 39 143 m 429 100 q 488 462 488 263 q 381 661 488 661 q 318 650 343 661 q 260 288 260 488 q 367 89 260 89 q 429 100 404 89 z "},"p":{"ha":685,"x_min":61,"x_max":694,"o":"m 63 750 l 421 763 q 674 681 626 763 q 694 592 694 646 q 642 450 694 508 q 346 339 544 339 l 350 392 q 471 551 471 392 q 393 685 471 685 q 340 678 368 685 q 318 211 318 528 q 336 -4 318 74 q 92 -21 163 -7 l 85 -15 q 113 216 101 54 q 125 501 125 378 q 117 704 125 625 q 61 724 83 713 l 63 750 z "},"q":{"ha":747,"x_min":39,"x_max":888,"o":"m 39 274 q 140 570 39 440 q 410 771 240 700 q 630 694 551 771 q 708 470 708 617 q 617 194 708 324 q 379 -3 525 64 q 519 -84 414 -15 q 672 -153 625 -153 q 707 -128 696 -153 q 718 -71 718 -103 l 722 -62 q 872 -21 808 -57 q 888 -47 888 -33 q 807 -144 888 -94 q 637 -224 726 -194 q 488 -261 547 -253 q 405 -189 439 -217 q 317 -133 371 -161 q 203 -106 263 -106 q 99 -133 144 -106 l 82 -114 q 165 -53 110 -83 q 265 -12 219 -22 q 101 85 164 8 q 39 274 39 163 m 429 100 q 488 462 488 263 q 381 661 488 661 q 318 650 343 661 q 260 288 260 488 q 367 89 260 89 q 429 100 404 89 z "},"r":{"ha":765,"x_min":61,"x_max":771,"o":"m 63 750 l 421 763 q 622 728 551 763 q 692 592 692 693 q 651 471 692 525 q 544 383 611 417 q 651 188 579 314 q 771 -4 722 63 q 518 -21 633 -4 l 511 -18 q 459 147 497 43 q 371 344 421 250 l 339 344 l 343 397 q 435 435 401 397 q 469 551 469 474 q 390 685 469 685 q 338 678 365 685 q 317 211 317 525 q 333 -4 317 67 q 89 -21 160 -7 l 82 -15 q 110 216 99 54 q 122 514 122 378 q 117 704 122 650 q 61 724 83 713 l 63 750 z "},"s":{"ha":565,"x_min":14,"x_max":554,"o":"m 228 617 q 274 546 228 579 q 376 490 321 513 q 478 433 432 468 q 525 361 525 399 q 437 160 525 275 q 257 -21 349 44 q 33 99 106 -21 l 14 131 q 146 307 110 218 l 178 296 q 169 233 169 267 q 208 156 169 200 q 292 94 246 113 q 335 158 315 118 q 356 233 356 199 q 310 301 356 267 q 211 358 265 335 q 112 415 157 381 q 67 489 67 450 q 143 648 67 560 q 293 767 219 736 q 438 750 361 750 q 546 760 515 750 l 554 744 q 505 633 522 703 q 488 503 488 564 l 460 503 q 440 576 453 524 l 410 597 q 328 636 378 619 q 238 653 278 653 q 228 617 228 639 z "},"t":{"ha":646,"x_min":1,"x_max":665,"o":"m 221 771 q 372 759 261 769 q 531 749 483 749 q 594 757 579 749 q 618 782 600 763 q 646 810 636 801 l 665 800 q 617 625 633 735 l 589 633 q 467 651 547 646 q 438 259 438 438 q 454 -3 438 81 q 210 -21 263 -10 l 203 -15 q 231 217 219 54 q 243 485 243 379 q 239 665 243 592 q 122 635 160 665 q 118 599 118 625 q 133 547 118 572 l 133 538 q 50 425 88 504 q 15 442 28 425 q 1 483 1 460 q 60 660 1 585 q 221 771 119 735 z "},"u":{"ha":804,"x_min":47,"x_max":731,"o":"m 96 233 l 114 525 q 103 704 114 632 q 47 724 69 713 l 49 750 q 340 765 232 750 l 347 760 q 306 315 306 575 q 333 122 306 157 q 371 100 349 104 q 486 239 447 154 q 492 530 492 367 q 479 747 492 693 q 724 765 642 747 l 731 760 q 701 515 713 676 q 690 202 690 353 q 703 -3 690 51 q 474 -21 557 -3 l 465 -15 q 496 142 489 78 l 490 143 q 331 -21 428 26 q 152 45 208 -18 q 96 233 96 108 z "},"v":{"ha":686,"x_min":50,"x_max":685,"o":"m 463 592 q 426 722 463 688 l 426 732 q 611 796 544 757 q 685 639 685 758 q 597 308 685 469 q 364 -18 510 147 l 353 -21 l 314 -3 q 115 63 176 63 q 65 54 85 63 l 57 72 q 96 164 89 101 q 111 497 111 363 q 106 704 111 632 q 50 724 72 713 l 51 750 q 343 765 235 750 l 350 760 q 304 240 310 582 q 306 161 304 188 q 379 106 326 125 q 463 592 463 342 z "},"w":{"ha":1008,"x_min":50,"x_max":1028,"o":"m 461 592 q 400 736 461 715 l 404 757 q 619 750 492 750 q 1013 810 907 750 l 1028 790 q 967 739 1004 764 q 985 639 985 704 q 661 -18 985 300 l 651 -21 l 611 -3 q 460 92 500 47 q 364 -18 413 22 l 353 -21 l 314 -3 q 115 63 176 63 q 65 54 85 63 l 57 72 q 96 164 89 101 q 111 497 111 363 q 106 704 111 632 q 50 724 72 713 l 51 750 q 343 765 235 750 l 350 760 l 350 758 q 304 240 310 583 q 306 161 304 188 q 386 104 335 119 q 461 592 461 329 m 764 581 q 745 674 764 644 q 681 704 726 704 q 653 703 665 704 q 663 628 663 685 q 561 240 663 453 q 614 156 574 201 q 688 104 654 110 q 764 581 764 333 z "},"x":{"ha":647,"x_min":1,"x_max":649,"o":"m 450 706 q 444 744 450 728 l 449 750 q 649 768 576 750 q 561 565 643 671 q 417 400 490 476 q 523 186 451 313 q 642 -3 594 60 q 365 -21 489 -3 l 357 -18 q 261 290 299 186 q 201 43 201 153 q 207 4 201 21 l 203 -3 q 3 -19 69 -3 q 236 363 11 143 q 153 544 188 483 q 56 704 119 604 q 1 724 25 711 l 3 750 q 301 765 193 750 l 308 760 q 389 474 381 497 q 450 706 450 601 z "},"y":{"ha":644,"x_min":-10,"x_max":646,"o":"m 378 421 q 425 562 403 468 q 447 693 447 656 q 442 743 447 731 l 447 750 q 646 767 579 750 q 425 374 638 628 q 419 183 419 290 q 438 -3 419 75 q 194 -21 246 -10 l 188 -15 q 225 338 218 111 q 199 401 215 365 q 164 481 183 436 q 44 704 90 647 q -10 724 14 711 l -8 750 q 290 765 182 750 l 297 760 q 378 421 308 624 z "},"z":{"ha":600,"x_min":-19,"x_max":614,"o":"m 333 788 q 476 750 401 750 q 592 788 550 750 l 611 772 q 513 631 582 736 q 390 428 443 526 l 258 183 l 263 179 q 290 190 278 186 q 433 136 371 136 q 467 200 467 136 q 464 231 467 211 l 467 239 q 596 308 526 254 q 614 276 614 300 q 492 81 614 204 q 293 -61 369 -43 q 85 10 174 10 q 1 -26 28 10 l -19 -11 q 161 253 50 71 l 347 558 l 344 561 q 317 553 332 556 q 218 590 264 590 q 185 526 185 590 q 188 496 185 515 l 183 488 q 56 418 125 472 q 36 450 36 428 q 148 634 36 515 q 333 788 260 753 z "},"{":{"ha":417,"x_min":65,"x_max":389,"o":"m 267 828 q 265 773 265 813 q 281 630 265 733 q 297 495 297 526 q 297 457 297 464 q 160 347 274 413 l 160 342 q 281 232 264 278 q 239 53 276 178 q 197 -137 201 -71 q 237 -215 207 -176 q 301 -272 267 -253 l 289 -299 q 158 -222 221 -278 q 96 -108 96 -165 q 128 75 96 -61 q 160 263 160 211 q 133 306 160 289 q 69 328 107 322 l 65 354 q 171 429 168 376 q 172 492 172 451 q 165 614 172 533 q 157 733 157 694 q 158 790 157 772 q 235 908 163 850 q 379 988 308 967 l 389 963 q 317 906 351 944 q 267 828 282 867 z "},"|":{"ha":363,"x_min":128,"x_max":235,"o":"m 231 -271 q 154 -303 197 -290 l 140 -297 q 128 999 140 742 q 225 1049 185 1021 l 235 1047 q 231 -271 231 647 z "},"}":{"ha":408,"x_min":28,"x_max":351,"o":"m 150 -139 q 151 -84 151 -124 q 135 59 151 -44 q 119 194 119 163 q 119 232 119 225 q 257 342 143 276 l 257 347 q 136 457 153 411 q 178 635 140 511 q 219 826 215 760 q 180 903 210 865 q 115 961 150 942 l 128 988 q 258 910 196 967 q 321 797 321 854 q 289 608 321 743 q 257 426 257 472 q 283 383 257 400 q 347 361 310 367 l 351 335 q 246 260 249 313 q 244 197 244 238 q 252 75 244 156 q 260 -44 260 -6 q 258 -101 260 -83 q 181 -219 254 -161 q 38 -299 108 -278 l 28 -274 q 100 -217 65 -256 q 150 -139 135 -178 z "},"~":{"ha":1006,"x_min":29,"x_max":976,"o":"m 706 385 q 944 503 824 385 l 976 476 q 838 331 929 401 q 663 236 746 260 q 464 297 601 236 q 264 358 326 358 q 61 249 146 358 l 29 275 q 180 431 82 357 q 363 515 278 506 q 706 385 556 385 z "}," ":{"ha":229,"x_min":0,"x_max":0,"o":""},"¡":{"ha":360,"x_min":-29,"x_max":331,"o":"m 331 582 q 267 501 310 549 q 193 432 225 454 q 132 499 164 453 q 83 582 100 544 q 141 647 99 611 q 218 701 183 683 q 331 582 278 664 m 47 -301 q 36 -301 42 -301 q -29 -206 1 -268 q 163 343 107 93 l 226 350 l 204 -260 q 47 -301 111 -301 z "},"¢":{"ha":493,"x_min":28,"x_max":507,"o":"m 274 -1 q 94 66 160 1 q 28 254 28 131 q 109 493 28 378 q 322 690 190 608 l 329 817 q 371 825 354 819 l 376 821 q 364 694 371 779 q 449 681 415 681 q 499 686 483 681 l 507 665 q 435 432 444 596 l 410 432 q 394 501 403 458 l 375 531 q 351 554 367 542 l 325 146 q 428 318 382 203 l 461 311 q 315 32 419 135 l 308 -126 l 301 -128 q 261 -107 275 -119 l 275 0 l 274 -1 m 281 589 q 243 322 243 453 q 286 156 243 192 l 315 578 q 281 589 300 586 z "},"£":{"ha":558,"x_min":10,"x_max":588,"o":"m 92 188 l 83 333 l 21 331 l 10 338 l 32 401 l 90 401 q 201 593 114 499 q 389 747 288 688 q 507 726 450 726 q 579 732 564 726 l 588 711 q 516 606 542 671 q 488 472 490 542 l 463 472 q 447 542 456 497 l 428 571 q 383 613 413 593 q 328 635 353 633 q 298 527 311 596 q 285 415 285 458 l 285 407 q 458 421 344 410 l 469 414 l 446 357 l 281 346 q 196 175 267 243 q 322 164 253 164 q 424 178 392 164 q 479 268 461 246 l 501 257 q 469 98 469 178 q 489 -10 469 18 l 476 -29 q 164 11 325 11 q 33 -18 76 11 l 19 -4 q 72 83 53 29 q 92 188 92 138 z "},"¤":{"ha":788,"x_min":7,"x_max":804,"o":"m 103 388 q 182 592 103 501 q 51 715 122 649 q 107 793 61 747 l 115 793 l 249 650 q 432 726 332 707 q 601 683 535 726 l 713 792 q 801 765 764 772 l 804 758 l 653 626 q 686 496 686 574 q 592 276 686 371 l 588 274 q 763 117 726 147 l 760 111 q 667 85 728 107 l 526 222 q 376 161 460 178 q 193 206 264 161 l 50 83 l 42 83 q 7 158 13 115 q 138 263 38 181 q 103 388 103 313 m 388 635 q 271 604 314 635 q 225 449 225 543 q 269 304 225 356 q 394 253 314 253 q 518 283 475 253 q 565 440 565 344 q 388 635 565 635 z "},"¥":{"ha":724,"x_min":-10,"x_max":714,"o":"m 457 274 l 456 228 q 590 235 560 232 l 594 229 q 571 185 578 208 l 456 181 q 476 0 456 96 q 236 -21 314 -4 l 228 -14 q 263 175 250 79 q 118 165 172 172 l 114 171 q 158 217 154 211 l 269 221 l 272 268 q 124 258 179 265 l 119 264 q 164 310 160 304 l 267 314 q 68 675 143 599 q -10 699 22 683 l -8 724 q 329 743 200 724 l 336 735 q 431 394 369 558 q 486 535 463 456 q 510 656 510 615 q 503 717 510 697 l 508 724 q 714 744 632 724 q 685 636 711 686 q 644 561 658 586 q 600 498 629 536 q 556 442 571 460 q 463 329 490 361 l 461 321 q 596 328 565 325 l 600 322 q 576 278 583 301 l 457 274 z "},"¦":{"ha":363,"x_min":128,"x_max":235,"o":"m 231 479 q 154 447 197 460 l 140 453 q 135 833 140 718 q 128 1008 129 947 q 225 1058 185 1031 l 235 1057 q 231 479 231 657 m 231 -269 q 154 -301 197 -289 l 140 -296 q 135 81 140 -29 q 128 253 129 190 q 225 304 194 282 l 235 303 q 231 -269 231 -97 z "},"§":{"ha":592,"x_min":14,"x_max":578,"o":"m 578 429 q 425 200 578 324 q 497 90 497 140 q 444 -14 497 39 q 213 -160 343 -112 q 97 -139 147 -139 q 29 -151 47 -139 l 15 -136 q 107 22 79 -61 l 121 26 l 157 0 q 219 -40 181 -18 q 283 -65 258 -61 q 319 -2 319 -44 q 272 82 319 40 q 167 158 224 124 q 62 240 110 192 q 14 336 14 289 q 167 564 14 446 q 94 676 94 626 q 147 779 94 726 q 379 925 249 878 q 494 904 444 904 q 563 917 544 904 l 576 901 q 485 743 513 826 l 471 739 l 435 765 q 372 805 411 783 q 308 831 333 826 q 272 767 272 810 q 320 683 272 725 q 425 608 368 642 q 530 525 482 574 q 578 429 578 476 m 417 327 q 417 352 417 327 q 369 415 417 376 q 276 485 322 454 q 211 529 229 517 q 175 431 175 486 q 267 314 175 378 q 325 273 288 299 q 381 235 363 247 q 417 327 417 278 z "},"¨":{"ha":563,"x_min":19,"x_max":563,"o":"m 256 906 q 194 829 235 874 q 124 764 153 785 q 19 906 68 806 q 75 968 35 933 q 149 1019 115 1003 q 256 906 203 985 m 563 906 q 501 829 542 874 q 431 764 460 785 q 326 906 375 806 q 382 968 342 933 q 456 1019 422 1003 q 563 906 510 985 z "},"©":{"ha":1029,"x_min":42,"x_max":988,"o":"m 507 165 q 345 220 404 165 q 286 377 286 275 q 353 585 286 479 q 510 744 421 692 q 626 725 578 725 q 696 731 674 725 l 703 719 q 657 538 657 668 l 632 538 q 611 606 618 569 l 596 621 q 550 650 579 638 q 510 663 521 663 q 499 663 500 663 q 446 411 446 540 q 543 243 446 243 q 581 361 581 274 q 578 382 581 365 l 582 386 q 647 396 601 388 q 707 410 692 404 q 635 268 692 336 q 507 165 579 200 m 502 -21 q 404 -21 502 -21 q 174 111 306 -21 q 42 435 42 243 q 184 776 42 626 q 524 925 326 925 q 855 792 722 925 q 988 467 988 658 q 843 127 988 275 q 502 -21 699 -21 m 914 462 q 914 545 914 462 q 801 741 914 628 q 526 854 689 854 q 240 731 364 854 q 115 442 115 608 q 226 163 115 275 q 503 50 338 50 q 791 173 668 50 q 914 462 914 296 z "},"ª":{"ha":610,"x_min":53,"x_max":601,"o":"m 344 551 q 361 642 350 571 l 343 644 q 208 360 301 425 q 94 415 136 360 q 53 551 53 471 q 129 778 53 675 q 325 933 206 881 q 469 896 388 933 q 517 969 508 958 l 535 964 q 497 653 497 867 q 506 471 497 535 q 583 651 542 518 l 601 647 q 469 360 561 424 q 369 408 394 360 q 344 551 344 456 m 256 835 q 226 598 226 703 q 244 481 226 493 q 307 637 281 531 q 333 815 333 743 q 289 842 311 842 q 256 835 267 842 z "},"«":{"ha":674,"x_min":47,"x_max":664,"o":"m 228 396 l 360 121 l 321 97 q 47 371 185 281 l 50 406 q 390 667 226 496 l 422 644 l 228 396 m 493 396 l 611 149 l 568 124 q 450 263 507 207 q 313 371 393 318 l 315 406 q 628 639 489 494 l 664 613 l 493 396 z "},"¬":{"ha":800,"x_min":75,"x_max":725,"o":"m 625 317 l 86 317 l 75 326 l 88 418 q 490 406 324 406 q 710 410 656 406 l 718 401 q 725 122 718 306 l 718 114 l 625 126 l 625 317 z "},"®":{"ha":603,"x_min":29,"x_max":574,"o":"m 294 422 q 237 422 294 422 q 105 498 181 422 q 29 688 29 574 q 111 884 29 801 q 308 967 193 967 q 498 890 422 967 q 574 701 574 814 q 490 505 574 588 q 294 422 407 422 m 310 908 q 265 908 310 908 q 153 846 219 908 q 88 693 88 783 q 145 540 88 603 q 293 478 203 478 q 448 542 383 478 q 513 696 513 606 q 456 847 513 786 q 310 908 400 908 m 176 840 l 321 844 q 413 781 413 844 q 354 703 413 718 l 389 640 q 436 565 410 603 q 403 565 426 565 q 346 558 381 565 l 343 560 q 297 697 321 649 l 285 697 l 288 722 q 333 769 333 722 q 306 817 333 817 q 282 811 292 817 q 274 663 274 743 q 278 565 274 582 q 193 560 222 565 l 190 563 q 204 711 204 626 q 200 815 204 796 q 174 825 186 819 l 176 840 z "},"¯":{"ha":501,"x_min":0,"x_max":501,"o":"m 90 964 q 275 957 165 957 q 486 964 385 957 l 501 951 l 463 847 l 14 842 l 0 851 l 39 969 l 90 964 z "},"°":{"ha":506,"x_min":63,"x_max":447,"o":"m 256 550 q 118 591 174 550 q 63 712 63 632 q 120 851 63 792 q 267 926 178 911 q 397 885 347 926 q 447 763 447 843 q 394 626 447 683 q 256 550 342 568 m 242 853 q 176 836 197 853 q 158 744 158 797 q 186 657 158 690 q 263 624 214 624 q 333 640 313 624 q 351 729 351 679 q 242 853 351 853 z "},"±":{"ha":800,"x_min":74,"x_max":728,"o":"m 450 364 q 463 125 450 257 l 365 119 l 351 122 l 351 364 l 96 364 l 85 374 l 97 472 q 351 463 267 464 l 351 675 l 450 688 l 457 679 q 450 463 450 557 l 450 461 q 583 460 501 460 q 719 464 665 460 l 728 456 l 715 364 l 450 364 m 86 81 q 488 68 322 68 q 708 72 654 68 l 717 64 l 704 -14 l 85 -14 l 74 -4 l 86 81 z "},"²":{"ha":544,"x_min":19,"x_max":481,"o":"m 275 832 q 211 907 275 907 q 158 899 183 907 q 150 849 150 869 q 164 822 150 829 l 164 814 q 64 756 97 792 q 47 767 49 756 q 46 778 46 771 l 46 786 q 123 933 46 846 q 271 1039 200 1021 q 430 997 381 1039 q 479 850 479 954 q 348 732 440 801 q 243 653 256 663 q 330 642 281 642 q 410 651 379 642 q 465 725 435 690 l 481 717 q 454 580 454 650 q 472 485 454 510 l 463 471 q 136 503 292 503 q 42 476 74 503 l 19 489 q 169 661 51 561 q 242 744 210 697 q 275 832 275 790 z "},"³":{"ha":501,"x_min":19,"x_max":482,"o":"m 281 678 q 213 756 281 756 q 176 750 193 756 l 169 772 q 268 886 233 813 q 190 899 218 899 q 149 894 161 899 q 113 832 128 851 l 92 839 q 114 949 114 890 q 100 1031 114 1007 l 113 1044 q 343 1010 165 1010 q 457 1017 408 1010 l 463 996 q 299 839 407 906 l 299 835 q 482 717 482 835 q 453 633 482 675 q 378 561 424 592 q 210 472 296 503 q 101 496 157 472 q 19 560 46 519 q 142 701 106 618 l 171 690 q 160 654 160 669 q 229 542 160 565 q 281 678 281 576 z "},"´":{"ha":386,"x_min":56,"x_max":442,"o":"m 319 1036 q 359 1038 339 1038 q 394 1035 379 1038 q 424 972 408 1021 q 442 900 440 922 l 75 754 l 56 788 q 319 1036 257 921 z "},"µ":{"ha":781,"x_min":58,"x_max":774,"o":"m 450 219 q 472 333 460 275 l 449 336 q 333 42 400 119 q 258 -21 301 3 q 221 -1 239 -17 q 250 -272 221 -147 l 246 -276 q 71 -304 147 -283 l 58 -294 q 85 199 78 -161 l 90 460 q 92 553 92 496 q 82 676 92 611 l 88 681 q 333 701 281 688 l 342 694 q 296 226 296 522 q 324 122 296 131 q 407 331 369 182 q 444 551 444 479 q 433 681 444 622 q 661 701 551 681 l 669 694 q 642 339 642 599 q 653 121 642 204 q 751 344 701 182 l 774 339 q 608 -21 724 58 q 482 40 514 -21 q 450 219 450 100 z "},"¶":{"ha":799,"x_min":29,"x_max":799,"o":"m 338 914 l 531 904 l 536 897 q 482 451 503 744 l 468 251 q 386 -35 457 79 q 290 -126 350 -93 q 153 -160 231 -160 q 118 -147 132 -160 q 104 -114 104 -135 q 181 -31 156 -76 l 193 -29 q 251 -46 211 -46 q 322 -32 292 -46 q 371 182 364 67 l 386 414 q 339 410 361 410 q 118 488 207 410 q 29 686 29 565 q 115 860 29 807 q 338 914 200 914 m 799 922 q 706 693 742 881 q 669 292 669 506 q 690 0 669 78 q 500 -21 578 0 l 494 -15 q 553 431 528 75 q 603 904 579 786 q 789 940 719 913 l 799 922 z "},"·":{"ha":306,"x_min":29,"x_max":276,"o":"m 276 397 q 213 317 256 364 q 139 247 171 269 q 78 314 110 268 q 29 397 46 360 q 87 463 44 426 q 164 517 129 499 q 276 397 224 479 z "},"¸":{"ha":314,"x_min":1,"x_max":311,"o":"m 311 -175 q 310 -194 311 -185 q 142 -326 244 -294 q 1 -292 68 -326 q 54 -192 25 -257 l 61 -189 q 165 -244 99 -244 q 203 -239 190 -244 q 211 -203 211 -228 q 90 -140 211 -140 l 81 -133 l 161 24 l 224 26 l 171 -53 l 176 -58 q 277 -92 243 -58 q 311 -175 311 -125 z "},"¹":{"ha":431,"x_min":33,"x_max":381,"o":"m 275 1031 l 339 1036 l 342 1033 q 314 709 314 821 q 318 549 314 597 q 381 497 350 511 l 374 472 q 212 488 318 488 q 39 474 106 488 l 33 497 q 113 535 79 522 q 133 818 133 681 l 128 897 l 44 897 l 42 900 q 44 936 42 928 q 275 1031 181 963 z "},"º":{"ha":544,"x_min":53,"x_max":490,"o":"m 300 824 q 274 836 289 836 q 247 831 258 836 q 222 590 222 718 q 242 461 222 483 q 267 449 253 449 q 293 454 282 449 q 319 682 319 564 q 300 824 319 800 m 246 360 q 103 417 153 360 q 53 577 53 475 q 123 776 53 679 q 296 925 193 874 q 442 869 393 925 q 490 709 490 814 q 420 506 490 604 q 246 360 350 408 z "},"»":{"ha":674,"x_min":10,"x_max":626,"o":"m 446 368 l 314 643 l 353 667 q 626 393 489 483 l 624 358 q 283 97 447 268 l 251 119 l 446 368 m 181 368 l 63 615 l 106 640 q 224 501 167 557 q 361 393 281 446 l 358 358 q 46 125 185 269 l 10 151 l 181 368 z "},"¼":{"ha":1111,"x_min":39,"x_max":1076,"o":"m 181 -67 l 171 -67 q 128 11 153 -53 q 385 313 317 226 l 692 700 q 901 982 754 776 q 993 968 944 971 l 1000 963 q 785 699 954 911 l 181 -67 m 964 131 q 968 74 964 106 q 1032 28 990 47 l 1025 3 q 864 18 969 18 q 692 4 758 18 l 686 28 q 765 58 724 46 q 779 131 778 92 l 549 131 l 536 181 q 778 539 688 356 q 996 578 894 544 l 1004 574 q 967 228 971 494 q 1058 258 1022 228 l 1076 246 q 1047 125 1054 185 q 964 131 1013 131 m 782 435 q 671 238 739 331 q 781 229 718 229 l 789 435 l 782 435 m 281 921 l 344 926 l 347 924 q 319 599 319 711 q 324 439 319 486 q 386 388 356 401 l 379 363 q 217 378 324 378 q 44 364 111 378 l 39 388 q 118 425 85 413 q 139 708 139 571 l 133 788 l 50 788 l 47 790 q 50 826 47 818 q 281 921 186 853 z "},"½":{"ha":1111,"x_min":39,"x_max":1067,"o":"m 181 -67 l 171 -67 q 128 11 153 -53 q 385 313 317 226 l 692 700 q 901 982 754 776 q 993 968 944 971 l 1000 963 q 785 699 954 911 l 181 -67 m 281 921 l 344 926 l 347 924 q 319 599 319 711 q 324 439 319 486 q 386 388 356 401 l 379 363 q 217 378 324 378 q 44 364 111 378 l 39 388 q 118 425 85 413 q 139 708 139 571 l 133 788 l 50 788 l 47 790 q 50 826 47 818 q 281 921 186 853 m 861 358 q 797 433 861 433 q 744 425 769 433 q 736 376 736 396 q 750 349 736 356 l 750 340 q 650 282 683 318 q 633 293 635 282 q 632 303 632 297 l 632 313 q 709 460 632 372 q 857 565 786 547 q 1016 523 967 565 q 1065 376 1065 481 q 934 258 1026 328 q 829 179 842 189 q 916 168 867 168 q 996 178 965 168 q 1051 251 1021 217 l 1067 243 q 1040 107 1040 178 q 1058 11 1040 36 l 1049 -3 q 722 29 878 29 q 628 3 660 29 l 606 15 q 756 189 638 88 q 828 270 796 224 q 861 358 861 317 z "},"¾":{"ha":1111,"x_min":19,"x_max":1076,"o":"m 281 567 q 213 644 281 644 q 176 639 193 644 l 169 661 q 268 775 233 701 q 190 788 218 788 q 149 783 161 788 q 113 721 128 740 l 92 728 q 114 838 114 779 q 100 919 114 896 l 113 933 q 343 899 165 899 q 457 906 408 899 l 463 885 q 299 728 407 794 l 299 724 q 482 606 482 724 q 453 522 482 564 q 378 450 424 481 q 210 361 296 392 q 101 385 157 361 q 19 449 46 408 q 142 590 106 507 l 171 579 q 160 543 160 558 q 229 431 160 454 q 281 567 281 465 m 181 -67 l 171 -67 q 128 11 153 -53 q 385 313 317 226 l 692 700 q 901 982 754 776 q 993 968 944 971 l 1000 963 q 785 699 954 911 l 181 -67 m 964 131 q 968 74 964 106 q 1032 28 990 47 l 1025 3 q 864 18 969 18 q 692 4 758 18 l 686 28 q 765 58 724 46 q 779 131 778 92 l 549 131 l 536 181 q 778 539 688 356 q 996 578 894 544 l 1004 574 q 967 228 971 494 q 1058 258 1022 228 l 1076 246 q 1047 125 1054 185 q 964 131 1013 131 m 782 435 q 671 238 739 331 q 781 229 718 229 l 789 435 l 782 435 z "},"¿":{"ha":438,"x_min":-53,"x_max":429,"o":"m 311 119 q 220 13 257 76 q 183 -117 183 -51 q 235 -183 183 -183 q 275 -176 258 -183 q 288 -117 288 -151 q 268 -67 288 -83 l 271 -56 q 394 25 349 -21 q 429 -17 429 25 q 353 -188 429 -112 q 169 -299 276 -264 q 9 -243 71 -299 q -53 -92 -53 -187 q -10 -43 -26 -58 q 17 -18 7 -28 q 44 6 26 -8 q 70 26 61 19 q 100 47 79 33 l 128 67 q 158 89 135 72 q 186 108 181 106 q 214 230 200 149 q 232 328 228 311 l 318 342 l 311 119 m 408 569 q 345 489 388 536 q 271 419 303 442 q 210 486 242 440 q 161 569 178 532 q 221 643 178 600 q 296 703 264 686 q 408 569 342 675 z "},"À":{"ha":810,"x_min":-4,"x_max":732,"o":"m 256 932 q 508 904 381 904 q 724 919 635 904 l 732 913 q 699 638 713 831 q 685 263 685 446 q 700 0 685 81 q 440 -21 514 -6 l 432 -14 q 469 296 457 96 q 410 304 440 304 q 354 304 379 304 q 294 296 329 304 q 265 113 265 178 q 275 -1 265 47 q 15 -21 126 -1 l -1 -10 l 274 794 q 349 815 306 806 l 350 825 q 121 779 169 825 q 118 757 118 768 q 138 683 118 713 l 138 672 q 43 554 79 624 q 8 575 19 554 q -4 624 -4 596 q 69 810 -4 729 q 256 932 143 890 m 314 401 q 393 392 339 392 q 474 403 447 392 q 481 653 481 553 q 475 821 481 753 q 451 825 469 825 q 424 821 432 825 q 382 699 399 783 l 314 401 m 218 1257 q 253 1260 233 1260 q 293 1258 274 1260 q 374 1169 318 1214 q 467 1102 429 1124 q 576 1043 504 1081 l 561 1008 l 181 1114 q 193 1191 181 1138 q 218 1257 206 1244 z "},"Á":{"ha":810,"x_min":-4,"x_max":821,"o":"m 256 932 q 508 904 381 904 q 724 919 635 904 l 732 913 q 699 638 713 831 q 685 263 685 446 q 700 0 685 81 q 440 -21 514 -6 l 432 -14 q 469 296 457 96 q 410 304 440 304 q 354 304 379 304 q 294 296 329 304 q 265 113 265 178 q 275 -1 265 47 q 15 -21 126 -1 l -1 -10 l 274 794 q 349 815 306 806 l 350 825 q 121 779 169 825 q 118 757 118 768 q 138 683 118 713 l 138 672 q 43 554 79 624 q 8 575 19 554 q -4 624 -4 596 q 69 810 -4 729 q 256 932 143 890 m 314 401 q 393 392 339 392 q 474 403 447 392 q 481 653 481 553 q 475 821 481 753 q 451 825 469 825 q 424 821 432 825 q 382 699 399 783 l 314 401 m 708 1258 q 748 1260 728 1260 q 783 1257 768 1260 q 808 1191 796 1244 q 821 1114 821 1138 l 440 1008 l 425 1043 q 535 1102 497 1081 q 628 1169 572 1124 q 708 1258 683 1214 z "},"Â":{"ha":810,"x_min":-4,"x_max":801,"o":"m 256 932 q 508 904 381 904 q 724 919 635 904 l 732 913 q 699 638 713 831 q 685 263 685 446 q 700 0 685 81 q 440 -21 514 -6 l 432 -14 q 469 296 457 96 q 410 304 440 304 q 354 304 379 304 q 294 296 329 304 q 265 113 265 178 q 275 -1 265 47 q 15 -21 126 -1 l -1 -10 l 274 794 q 349 815 306 806 l 350 825 q 121 779 169 825 q 118 757 118 768 q 138 683 118 713 l 138 672 q 43 554 79 624 q 8 575 19 554 q -4 624 -4 596 q 69 810 -4 729 q 256 932 143 890 m 314 401 q 393 392 339 392 q 474 403 447 392 q 481 653 481 553 q 475 821 481 753 q 451 825 469 825 q 424 821 432 825 q 382 699 399 783 l 314 401 m 786 1008 l 500 1092 l 242 1008 l 226 1043 q 496 1258 432 1150 l 560 1258 q 801 1043 636 1129 l 786 1008 z "},"Ã":{"ha":810,"x_min":-4,"x_max":803,"o":"m 256 932 q 508 904 381 904 q 724 919 635 904 l 732 913 q 699 638 713 831 q 685 263 685 446 q 700 0 685 81 q 440 -21 514 -6 l 432 -14 q 469 296 457 96 q 410 304 440 304 q 354 304 379 304 q 294 296 329 304 q 265 113 265 178 q 275 -1 265 47 q 15 -21 126 -1 l -1 -10 l 274 794 q 349 815 306 806 l 350 825 q 121 779 169 825 q 118 757 118 768 q 138 683 118 713 l 138 672 q 43 554 79 624 q 8 575 19 554 q -4 624 -4 596 q 69 810 -4 729 q 256 932 143 890 m 314 401 q 393 392 339 392 q 474 403 447 392 q 481 653 481 553 q 475 821 481 753 q 451 825 469 825 q 424 821 432 825 q 382 699 399 783 l 314 401 m 654 1156 q 769 1204 722 1156 l 803 1181 q 608 1015 714 1058 q 481 1049 574 1015 q 354 1082 389 1082 q 242 1033 288 1082 l 207 1057 q 310 1153 243 1107 q 446 1222 378 1200 q 654 1156 547 1156 z "},"Ä":{"ha":810,"x_min":-4,"x_max":782,"o":"m 256 932 q 508 904 381 904 q 724 919 635 904 l 732 913 q 699 638 713 831 q 685 263 685 446 q 700 0 685 81 q 440 -21 514 -6 l 432 -14 q 469 296 457 96 q 410 304 440 304 q 354 304 379 304 q 294 296 329 304 q 265 113 265 178 q 275 -1 265 47 q 15 -21 126 -1 l -1 -10 l 274 794 q 349 815 306 806 l 350 825 q 121 779 169 825 q 118 757 118 768 q 138 683 118 713 l 138 672 q 43 554 79 624 q 8 575 19 554 q -4 624 -4 596 q 69 810 -4 729 q 256 932 143 890 m 314 401 q 393 392 339 392 q 474 403 447 392 q 481 653 481 553 q 475 821 481 753 q 451 825 469 825 q 424 821 432 825 q 382 699 399 783 l 314 401 m 475 1131 q 413 1054 454 1099 q 343 989 372 1010 q 239 1131 288 1031 q 294 1193 254 1158 q 368 1244 335 1228 q 475 1131 422 1210 m 782 1131 q 720 1054 761 1099 q 650 989 679 1010 q 546 1131 594 1031 q 601 1193 561 1158 q 675 1244 642 1228 q 782 1131 729 1210 z "},"Å":{"ha":810,"x_min":-4,"x_max":732,"o":"m 256 932 q 508 904 381 904 q 724 919 635 904 l 732 913 q 699 638 713 831 q 685 263 685 446 q 700 0 685 81 q 440 -21 514 -6 l 432 -14 q 469 296 457 96 q 410 304 440 304 q 354 304 379 304 q 294 296 329 304 q 265 113 265 178 q 275 -1 265 47 q 15 -21 126 -1 l -1 -10 l 274 794 q 349 815 306 806 l 350 825 q 121 779 169 825 q 118 757 118 768 q 138 683 118 713 l 138 672 q 43 554 79 624 q 8 575 19 554 q -4 624 -4 596 q 69 810 -4 729 q 256 932 143 890 m 314 401 q 393 392 339 392 q 474 403 447 392 q 481 653 481 553 q 475 821 481 753 q 451 825 469 825 q 424 821 432 825 q 382 699 399 783 l 314 401 m 488 974 q 388 999 428 974 q 349 1081 349 1024 q 401 1185 349 1138 q 529 1256 453 1233 q 658 1161 658 1256 q 610 1043 658 1092 q 488 974 561 994 m 439 1112 q 439 1094 439 1112 q 458 1058 439 1076 q 504 1039 476 1039 q 551 1051 532 1039 q 571 1120 571 1085 q 552 1174 571 1156 q 506 1193 533 1193 q 458 1181 478 1193 q 439 1112 439 1147 z "},"Æ":{"ha":1017,"x_min":-4,"x_max":1007,"o":"m 118 757 q 138 683 118 713 l 138 672 q 43 554 79 624 q 8 575 19 554 q -4 624 -4 596 q 69 810 -4 729 q 256 932 143 890 q 626 904 381 904 q 993 925 872 904 l 1001 910 q 936 690 943 843 l 913 690 q 890 796 900 729 q 757 825 826 825 q 696 818 731 825 q 668 518 681 715 q 753 513 694 513 q 883 536 813 513 l 890 528 q 869 411 882 504 q 726 425 772 425 q 664 422 679 425 q 661 338 661 375 q 665 263 661 300 q 681 183 668 226 q 790 99 704 99 q 828 231 828 151 q 824 274 828 256 l 833 281 q 1007 296 924 282 q 910 115 990 204 q 735 -21 829 26 q 511 52 572 -21 q 450 297 450 125 q 454 421 450 361 q 392 425 428 425 q 324 421 357 425 q 279 85 279 185 q 289 -1 279 47 q 29 -21 140 -1 l 13 -10 l 274 794 q 349 815 306 806 l 350 825 q 121 779 169 825 q 118 757 118 768 m 343 517 q 406 513 369 513 q 458 515 442 513 q 461 666 461 599 q 457 822 461 733 q 440 825 451 825 q 421 822 429 825 q 382 699 404 799 l 343 517 z "},"Ç":{"ha":647,"x_min":42,"x_max":667,"o":"m 42 271 q 42 169 42 271 q 124 -47 42 67 q 375 -160 206 -160 q 549 -9 472 -110 q 647 199 626 92 q 474 183 564 185 l 464 176 q 468 133 468 158 q 431 -40 468 26 q 350 -6 383 -40 q 301 86 317 29 q 274 311 274 192 q 350 792 274 632 q 507 711 400 792 l 536 689 q 563 583 549 619 l 586 583 q 608 750 586 657 q 667 893 629 843 l 657 913 q 558 904 631 904 q 429 925 486 904 q 140 646 238 817 q 42 271 42 475 m 501 -314 q 500 -333 501 -324 q 332 -465 435 -433 q 192 -431 258 -465 q 244 -331 215 -396 l 251 -328 q 356 -383 289 -383 q 393 -378 381 -383 q 401 -342 401 -367 q 281 -279 401 -279 l 271 -272 l 351 -115 l 414 -112 l 361 -192 l 367 -197 q 467 -231 433 -197 q 501 -314 501 -264 z "},"È":{"ha":789,"x_min":19,"x_max":747,"o":"m 747 278 q 628 55 747 158 q 364 -100 510 -49 q 112 -26 204 -100 q 19 171 19 47 q 96 375 19 294 q 292 481 172 456 q 354 474 308 481 l 356 483 q 136 661 136 526 q 296 824 206 751 q 479 925 386 897 q 690 875 606 925 q 610 679 631 786 l 597 679 q 503 759 547 731 q 407 788 460 788 q 367 783 388 788 q 358 728 358 763 q 392 579 358 631 q 514 515 426 528 l 506 463 q 318 401 383 463 q 253 218 253 339 q 291 78 253 135 q 397 22 329 22 q 493 43 465 22 q 542 231 542 111 q 530 313 542 283 q 479 343 518 343 q 457 340 468 343 q 453 307 453 325 q 483 221 453 251 l 483 210 q 389 108 426 176 q 340 196 340 108 q 415 373 340 307 q 610 450 490 439 q 715 392 682 432 q 747 278 747 351 m 178 1257 q 213 1260 193 1260 q 253 1258 233 1260 q 333 1169 278 1214 q 426 1102 389 1124 q 536 1043 464 1081 l 521 1008 l 140 1114 q 153 1191 140 1138 q 178 1257 165 1244 z "},"É":{"ha":789,"x_min":19,"x_max":781,"o":"m 747 278 q 628 55 747 158 q 364 -100 510 -49 q 112 -26 204 -100 q 19 171 19 47 q 96 375 19 294 q 292 481 172 456 q 354 474 308 481 l 356 483 q 136 661 136 526 q 296 824 206 751 q 479 925 386 897 q 690 875 606 925 q 610 679 631 786 l 597 679 q 503 759 547 731 q 407 788 460 788 q 367 783 388 788 q 358 728 358 763 q 392 579 358 631 q 514 515 426 528 l 506 463 q 318 401 383 463 q 253 218 253 339 q 291 78 253 135 q 397 22 329 22 q 493 43 465 22 q 542 231 542 111 q 530 313 542 283 q 479 343 518 343 q 457 340 468 343 q 453 307 453 325 q 483 221 453 251 l 483 210 q 389 108 426 176 q 340 196 340 108 q 415 373 340 307 q 610 450 490 439 q 715 392 682 432 q 747 278 747 351 m 668 1258 q 708 1260 688 1260 q 743 1257 728 1260 q 768 1191 756 1244 q 781 1114 781 1138 l 400 1008 l 385 1043 q 494 1102 457 1081 q 588 1169 532 1124 q 668 1258 643 1214 z "},"Ê":{"ha":789,"x_min":19,"x_max":761,"o":"m 747 278 q 628 55 747 158 q 364 -100 510 -49 q 112 -26 204 -100 q 19 171 19 47 q 96 375 19 294 q 292 481 172 456 q 354 474 308 481 l 356 483 q 136 661 136 526 q 296 824 206 751 q 479 925 386 897 q 690 875 606 925 q 610 679 631 786 l 597 679 q 503 759 547 731 q 407 788 460 788 q 367 783 388 788 q 358 728 358 763 q 392 579 358 631 q 514 515 426 528 l 506 463 q 318 401 383 463 q 253 218 253 339 q 291 78 253 135 q 397 22 329 22 q 493 43 465 22 q 542 231 542 111 q 530 313 542 283 q 479 343 518 343 q 457 340 468 343 q 453 307 453 325 q 483 221 453 251 l 483 210 q 389 108 426 176 q 340 196 340 108 q 415 373 340 307 q 610 450 490 439 q 715 392 682 432 q 747 278 747 351 m 746 1008 l 460 1092 l 201 1008 l 186 1043 q 456 1258 392 1150 l 519 1258 q 761 1043 596 1129 l 746 1008 z "},"Ë":{"ha":789,"x_min":19,"x_max":747,"o":"m 747 278 q 628 55 747 158 q 364 -100 510 -49 q 112 -26 204 -100 q 19 171 19 47 q 96 375 19 294 q 292 481 172 456 q 354 474 308 481 l 356 483 q 136 661 136 526 q 296 824 206 751 q 479 925 386 897 q 690 875 606 925 q 610 679 631 786 l 597 679 q 503 759 547 731 q 407 788 460 788 q 367 783 388 788 q 358 728 358 763 q 392 579 358 631 q 514 515 426 528 l 506 463 q 318 401 383 463 q 253 218 253 339 q 291 78 253 135 q 397 22 329 22 q 493 43 465 22 q 542 231 542 111 q 530 313 542 283 q 479 343 518 343 q 457 340 468 343 q 453 307 453 325 q 483 221 453 251 l 483 210 q 389 108 426 176 q 340 196 340 108 q 415 373 340 307 q 610 450 490 439 q 715 392 682 432 q 747 278 747 351 m 435 1131 q 373 1054 414 1099 q 303 989 332 1010 q 199 1131 247 1031 q 254 1193 214 1158 q 328 1244 294 1228 q 435 1131 382 1210 m 742 1131 q 680 1054 721 1099 q 610 989 639 1010 q 506 1131 554 1031 q 561 1193 521 1158 q 635 1244 601 1228 q 742 1131 689 1210 z "},"Ì":{"ha":478,"x_min":-103,"x_max":406,"o":"m 406 915 q 368 629 385 831 q 351 261 351 428 q 372 0 351 94 q 113 -21 188 -6 l 104 -14 q 138 264 124 68 q 153 571 153 460 q 150 779 153 682 q 226 800 179 789 l 228 810 q 22 765 69 810 q 19 743 19 754 q 39 669 19 699 l 39 658 q -56 540 -19 610 q -91 560 -79 540 q -103 608 -103 581 q -27 794 -103 714 q 163 917 49 875 q 274 907 208 907 q 397 922 339 907 l 406 915 m 7 1257 q 42 1260 22 1260 q 82 1258 63 1260 q 163 1169 107 1214 q 256 1102 218 1124 q 365 1043 293 1081 l 350 1008 l -31 1114 q -18 1191 -31 1138 q 7 1257 -6 1244 z "},"Í":{"ha":478,"x_min":-103,"x_max":554,"o":"m 406 915 q 368 629 385 831 q 351 261 351 428 q 372 0 351 94 q 113 -21 188 -6 l 104 -14 q 138 264 124 68 q 153 571 153 460 q 150 779 153 682 q 226 800 179 789 l 228 810 q 22 765 69 810 q 19 743 19 754 q 39 669 19 699 l 39 658 q -56 540 -19 610 q -91 560 -79 540 q -103 608 -103 581 q -27 794 -103 714 q 163 917 49 875 q 274 907 208 907 q 397 922 339 907 l 406 915 m 442 1258 q 481 1260 461 1260 q 517 1257 501 1260 q 542 1191 529 1244 q 554 1114 554 1138 l 174 1008 l 158 1043 q 268 1102 231 1081 q 361 1169 306 1124 q 442 1258 417 1214 z "},"Î":{"ha":478,"x_min":-103,"x_max":563,"o":"m 406 915 q 368 629 385 831 q 351 261 351 428 q 372 0 351 94 q 113 -21 188 -6 l 104 -14 q 138 264 124 68 q 153 571 153 460 q 150 779 153 682 q 226 800 179 789 l 228 810 q 22 765 69 810 q 19 743 19 754 q 39 669 19 699 l 39 658 q -56 540 -19 610 q -91 560 -79 540 q -103 608 -103 581 q -27 794 -103 714 q 163 917 49 875 q 274 907 208 907 q 397 922 339 907 l 406 915 m 547 1008 l 261 1092 l 3 1008 l -12 1043 q 257 1258 193 1150 l 321 1258 q 563 1043 397 1129 l 547 1008 z "},"Ï":{"ha":478,"x_min":-103,"x_max":543,"o":"m 406 915 q 368 629 385 831 q 351 261 351 428 q 372 0 351 94 q 113 -21 188 -6 l 104 -14 q 138 264 124 68 q 153 571 153 460 q 150 779 153 682 q 226 800 179 789 l 228 810 q 22 765 69 810 q 19 743 19 754 q 39 669 19 699 l 39 658 q -56 540 -19 610 q -91 560 -79 540 q -103 608 -103 581 q -27 794 -103 714 q 163 917 49 875 q 274 907 208 907 q 397 922 339 907 l 406 915 m 236 1131 q 174 1054 215 1099 q 104 989 133 1010 q 0 1131 49 1031 q 56 1193 15 1158 q 129 1244 96 1228 q 236 1131 183 1210 m 543 1131 q 481 1054 522 1099 q 411 989 440 1010 q 307 1131 356 1031 q 363 1193 322 1158 q 436 1244 403 1228 q 543 1131 490 1210 z "},"Ð":{"ha":836,"x_min":10,"x_max":794,"o":"m 49 904 l 429 919 q 708 827 622 919 q 794 534 794 735 q 671 183 794 333 q 346 -21 547 33 l 303 -10 q 158 15 207 15 q 82 10 110 15 l 74 28 q 113 138 103 58 q 133 431 126 271 l 21 421 l 10 429 q 58 497 42 458 l 135 497 q 138 686 138 592 q 126 856 138 781 q 47 879 79 864 l 49 904 m 344 450 q 342 283 342 383 q 349 114 342 183 q 422 101 369 101 q 508 131 475 101 q 551 285 536 189 q 567 445 567 382 q 566 533 567 508 q 563 602 565 557 q 555 675 560 647 q 539 738 550 703 q 513 792 528 772 q 473 825 497 811 q 418 839 449 839 q 367 831 388 839 q 347 513 354 692 q 493 532 435 521 l 501 525 q 467 461 483 497 l 344 450 z "},"Ñ":{"ha":867,"x_min":-126,"x_max":813,"o":"m 813 918 q 778 648 793 833 q 763 292 763 463 q 783 0 763 122 q 714 -4 775 -1 q 525 -18 543 -12 l 515 -14 q 292 565 443 236 q 232 674 257 640 l 226 671 q 239 239 226 425 q 263 0 251 53 q 90 -21 146 -7 l 82 -14 q 115 263 101 68 q 129 569 129 457 q 126 779 129 682 q 203 800 156 789 l 204 810 q -1 765 46 810 q -4 743 -4 754 q 15 669 -4 699 l 15 658 q -79 540 -43 610 q -115 560 -103 540 q -126 608 -126 581 q -51 794 -126 714 q 139 917 25 875 q 260 907 185 907 q 394 922 336 907 l 403 915 q 490 619 426 793 q 617 332 553 444 l 664 249 l 668 250 q 656 673 668 496 q 632 904 643 850 q 804 925 750 911 l 813 918 m 639 1156 q 754 1204 707 1156 l 788 1181 q 593 1015 699 1058 q 466 1049 558 1015 q 339 1082 374 1082 q 226 1033 272 1082 l 192 1057 q 295 1153 228 1107 q 431 1222 363 1200 q 639 1156 532 1156 z "},"Ò":{"ha":817,"x_min":42,"x_max":775,"o":"m 275 392 q 190 564 190 436 q 263 789 190 692 q 450 925 336 886 q 775 574 775 925 q 658 211 775 385 q 368 -21 542 38 q 128 75 214 -21 q 42 325 42 171 q 114 619 42 479 q 182 726 146 681 l 203 717 q 167 572 167 649 q 274 354 167 422 q 305 170 274 246 q 400 94 336 94 q 468 110 442 94 q 524 313 506 185 q 543 550 543 442 q 417 808 543 808 q 347 793 374 808 q 299 606 299 725 q 310 523 299 553 q 361 493 322 493 q 383 496 372 493 q 388 529 388 511 q 357 615 388 585 l 357 626 q 451 728 418 668 q 501 637 501 728 q 440 480 501 546 q 275 392 378 414 m 168 1257 q 203 1260 183 1260 q 243 1258 224 1260 q 324 1169 268 1214 q 417 1102 379 1124 q 526 1043 454 1081 l 511 1008 l 131 1114 q 143 1191 131 1138 q 168 1257 156 1244 z "},"Ó":{"ha":817,"x_min":42,"x_max":775,"o":"m 275 392 q 190 564 190 436 q 263 789 190 692 q 450 925 336 886 q 775 574 775 925 q 658 211 775 385 q 368 -21 542 38 q 128 75 214 -21 q 42 325 42 171 q 114 619 42 479 q 182 726 146 681 l 203 717 q 167 572 167 649 q 274 354 167 422 q 305 170 274 246 q 400 94 336 94 q 468 110 442 94 q 524 313 506 185 q 543 550 543 442 q 417 808 543 808 q 347 793 374 808 q 299 606 299 725 q 310 523 299 553 q 361 493 322 493 q 383 496 372 493 q 388 529 388 511 q 357 615 388 585 l 357 626 q 451 728 418 668 q 501 637 501 728 q 440 480 501 546 q 275 392 378 414 m 658 1258 q 698 1260 678 1260 q 733 1257 718 1260 q 758 1191 746 1244 q 771 1114 771 1138 l 390 1008 l 375 1043 q 485 1102 447 1081 q 578 1169 522 1124 q 658 1258 633 1214 z "},"Ô":{"ha":817,"x_min":42,"x_max":775,"o":"m 275 392 q 190 564 190 436 q 263 789 190 692 q 450 925 336 886 q 775 574 775 925 q 658 211 775 385 q 368 -21 542 38 q 128 75 214 -21 q 42 325 42 171 q 114 619 42 479 q 182 726 146 681 l 203 717 q 167 572 167 649 q 274 354 167 422 q 305 170 274 246 q 400 94 336 94 q 468 110 442 94 q 524 313 506 185 q 543 550 543 442 q 417 808 543 808 q 347 793 374 808 q 299 606 299 725 q 310 523 299 553 q 361 493 322 493 q 383 496 372 493 q 388 529 388 511 q 357 615 388 585 l 357 626 q 451 728 418 668 q 501 637 501 728 q 440 480 501 546 q 275 392 378 414 m 736 1008 l 450 1092 l 192 1008 l 176 1043 q 446 1258 382 1150 l 510 1258 q 751 1043 586 1129 l 736 1008 z "},"Õ":{"ha":817,"x_min":42,"x_max":775,"o":"m 275 392 q 190 564 190 436 q 263 789 190 692 q 450 925 336 886 q 775 574 775 925 q 658 211 775 385 q 368 -21 542 38 q 128 75 214 -21 q 42 325 42 171 q 114 619 42 479 q 182 726 146 681 l 203 717 q 167 572 167 649 q 274 354 167 422 q 305 170 274 246 q 400 94 336 94 q 468 110 442 94 q 524 313 506 185 q 543 550 543 442 q 417 808 543 808 q 347 793 374 808 q 299 606 299 725 q 310 523 299 553 q 361 493 322 493 q 383 496 372 493 q 388 529 388 511 q 357 615 388 585 l 357 626 q 451 728 418 668 q 501 637 501 728 q 440 480 501 546 q 275 392 378 414 m 604 1156 q 719 1204 672 1156 l 753 1181 q 558 1015 664 1058 q 431 1049 524 1015 q 304 1082 339 1082 q 192 1033 238 1082 l 157 1057 q 260 1153 193 1107 q 396 1222 328 1200 q 604 1156 497 1156 z "},"Ö":{"ha":817,"x_min":42,"x_max":775,"o":"m 275 392 q 190 564 190 436 q 263 789 190 692 q 450 925 336 886 q 775 574 775 925 q 658 211 775 385 q 368 -21 542 38 q 128 75 214 -21 q 42 325 42 171 q 114 619 42 479 q 182 726 146 681 l 203 717 q 167 572 167 649 q 274 354 167 422 q 305 170 274 246 q 400 94 336 94 q 468 110 442 94 q 524 313 506 185 q 543 550 543 442 q 417 808 543 808 q 347 793 374 808 q 299 606 299 725 q 310 523 299 553 q 361 493 322 493 q 383 496 372 493 q 388 529 388 511 q 357 615 388 585 l 357 626 q 451 728 418 668 q 501 637 501 728 q 440 480 501 546 q 275 392 378 414 m 425 1131 q 363 1054 404 1099 q 293 989 322 1010 q 189 1131 238 1031 q 244 1193 204 1158 q 318 1244 285 1228 q 425 1131 372 1210 m 732 1131 q 670 1054 711 1099 q 600 989 629 1010 q 496 1131 544 1031 q 551 1193 511 1158 q 625 1244 592 1228 q 732 1131 679 1210 z "},"×":{"ha":800,"x_min":107,"x_max":693,"o":"m 107 126 q 335 332 253 249 l 121 544 l 193 614 l 204 613 q 404 400 239 574 l 596 611 l 607 613 l 679 546 l 463 335 q 693 128 536 258 l 635 53 l 619 54 l 397 271 l 181 53 l 165 53 l 107 126 z "},"Ø":{"ha":817,"x_min":42,"x_max":775,"o":"m 42 331 q 156 690 42 524 q 450 925 269 857 q 553 914 504 925 q 569 968 560 932 q 583 1017 579 1004 q 649 1029 624 1019 l 654 1024 q 601 900 628 967 q 775 574 775 832 q 658 211 775 385 q 368 -21 542 38 q 254 -4 311 -21 l 213 -121 l 204 -121 q 157 -76 167 -96 l 200 17 q 42 331 42 103 m 468 110 q 524 313 506 185 q 543 541 543 442 q 526 704 543 640 l 314 153 q 394 94 346 94 q 468 110 442 94 m 274 354 q 286 229 274 288 l 497 768 q 419 808 465 808 q 347 793 374 808 q 274 354 274 606 z "},"Ù":{"ha":890,"x_min":-117,"x_max":813,"o":"m 118 285 l 139 635 q 136 779 139 682 q 213 800 165 789 l 214 810 q 8 765 56 810 q 6 743 6 754 q 25 669 6 699 l 25 658 q -69 540 -33 610 q -105 560 -93 540 q -117 608 -117 581 q -41 794 -117 714 q 149 917 35 875 q 258 907 194 907 q 381 922 322 907 l 389 915 q 352 666 368 822 q 336 413 336 510 q 338 281 336 315 q 346 204 339 247 q 414 111 360 122 q 550 278 501 174 q 560 635 560 439 q 544 901 560 831 q 804 922 731 907 l 813 915 q 777 621 790 815 q 764 249 764 426 q 779 0 764 71 q 538 -21 597 -8 l 528 -14 q 564 174 554 86 l 558 175 q 365 -21 481 31 q 174 58 229 -18 q 118 285 118 135 m 181 1257 q 216 1260 196 1260 q 256 1258 236 1260 q 336 1169 281 1214 q 429 1102 392 1124 q 539 1043 467 1081 l 524 1008 l 143 1114 q 156 1191 143 1138 q 181 1257 168 1244 z "},"Ú":{"ha":890,"x_min":-117,"x_max":813,"o":"m 118 285 l 139 635 q 136 779 139 682 q 213 800 165 789 l 214 810 q 8 765 56 810 q 6 743 6 754 q 25 669 6 699 l 25 658 q -69 540 -33 610 q -105 560 -93 540 q -117 608 -117 581 q -41 794 -117 714 q 149 917 35 875 q 258 907 194 907 q 381 922 322 907 l 389 915 q 352 666 368 822 q 336 413 336 510 q 338 281 336 315 q 346 204 339 247 q 414 111 360 122 q 550 278 501 174 q 560 635 560 439 q 544 901 560 831 q 804 922 731 907 l 813 915 q 777 621 790 815 q 764 249 764 426 q 779 0 764 71 q 538 -21 597 -8 l 528 -14 q 564 174 554 86 l 558 175 q 365 -21 481 31 q 174 58 229 -18 q 118 285 118 135 m 671 1258 q 710 1260 690 1260 q 746 1257 731 1260 q 771 1191 758 1244 q 783 1114 783 1138 l 403 1008 l 388 1043 q 497 1102 460 1081 q 590 1169 535 1124 q 671 1258 646 1214 z "},"Û":{"ha":890,"x_min":-117,"x_max":813,"o":"m 118 285 l 139 635 q 136 779 139 682 q 213 800 165 789 l 214 810 q 8 765 56 810 q 6 743 6 754 q 25 669 6 699 l 25 658 q -69 540 -33 610 q -105 560 -93 540 q -117 608 -117 581 q -41 794 -117 714 q 149 917 35 875 q 258 907 194 907 q 381 922 322 907 l 389 915 q 352 666 368 822 q 336 413 336 510 q 338 281 336 315 q 346 204 339 247 q 414 111 360 122 q 550 278 501 174 q 560 635 560 439 q 544 901 560 831 q 804 922 731 907 l 813 915 q 777 621 790 815 q 764 249 764 426 q 779 0 764 71 q 538 -21 597 -8 l 528 -14 q 564 174 554 86 l 558 175 q 365 -21 481 31 q 174 58 229 -18 q 118 285 118 135 m 749 1008 l 463 1092 l 204 1008 l 189 1043 q 458 1258 394 1150 l 522 1258 q 764 1043 599 1129 l 749 1008 z "},"Ü":{"ha":890,"x_min":-117,"x_max":813,"o":"m 118 285 l 139 635 q 136 779 139 682 q 213 800 165 789 l 214 810 q 8 765 56 810 q 6 743 6 754 q 25 669 6 699 l 25 658 q -69 540 -33 610 q -105 560 -93 540 q -117 608 -117 581 q -41 794 -117 714 q 149 917 35 875 q 258 907 194 907 q 381 922 322 907 l 389 915 q 352 666 368 822 q 336 413 336 510 q 338 281 336 315 q 346 204 339 247 q 414 111 360 122 q 550 278 501 174 q 560 635 560 439 q 544 901 560 831 q 804 922 731 907 l 813 915 q 777 621 790 815 q 764 249 764 426 q 779 0 764 71 q 538 -21 597 -8 l 528 -14 q 564 174 554 86 l 558 175 q 365 -21 481 31 q 174 58 229 -18 q 118 285 118 135 m 438 1131 q 376 1054 417 1099 q 306 989 335 1010 q 201 1131 250 1031 q 257 1193 217 1158 q 331 1244 297 1228 q 438 1131 385 1210 m 744 1131 q 683 1054 724 1099 q 613 989 642 1010 q 508 1131 557 1031 q 564 1193 524 1158 q 638 1244 604 1228 q 744 1131 692 1210 z "},"Ý":{"ha":731,"x_min":-287,"x_max":756,"o":"m 435 515 q 492 683 464 572 q 519 835 519 793 q 513 897 519 878 l 518 904 q 732 925 650 904 q 649 699 726 829 q 476 454 572 569 q 469 226 469 358 q 490 0 469 94 q 231 -21 306 -6 l 222 -14 q 269 408 260 140 q 186 607 240 475 q 108 794 132 739 q -37 1010 42 947 q -75 1017 -58 1017 q -172 963 -135 1017 l -183 963 q -287 1067 -228 1036 q -199 1121 -287 1121 q 47 1049 -110 1121 q 338 896 203 976 q 435 515 349 785 m 643 1260 q 683 1261 663 1261 q 718 1258 703 1261 q 743 1192 731 1246 q 756 1115 756 1139 l 375 1010 l 360 1044 q 469 1103 432 1082 q 563 1170 507 1125 q 643 1260 618 1215 z "},"Þ":{"ha":772,"x_min":43,"x_max":731,"o":"m 353 725 q 456 728 411 728 q 552 719 501 728 q 644 688 603 710 q 731 516 731 642 q 622 311 731 390 q 360 232 514 232 l 364 283 q 496 481 496 283 q 401 647 496 647 q 346 640 374 647 q 328 266 328 438 q 349 0 328 94 q 89 -21 164 -6 l 81 -14 q 115 264 100 68 q 129 617 129 460 q 122 856 129 774 q 43 879 75 864 l 44 904 q 374 922 254 904 l 382 915 q 353 725 365 844 z "},"ß":{"ha":1121,"x_min":14,"x_max":1110,"o":"m 228 617 q 274 546 228 579 q 376 490 321 513 q 478 433 432 468 q 525 361 525 399 q 437 160 525 275 q 257 -21 349 44 q 33 99 106 -21 l 14 131 q 146 307 110 218 l 178 296 q 169 233 169 267 q 208 156 169 200 q 292 94 246 113 q 335 158 315 118 q 356 233 356 199 q 310 301 356 267 q 211 358 265 335 q 112 415 157 381 q 67 489 67 450 q 143 648 67 560 q 293 767 219 736 q 438 750 361 750 q 546 760 515 750 l 554 744 q 505 633 522 703 q 488 503 488 564 l 460 503 q 440 576 453 524 l 410 597 q 328 636 378 619 q 238 653 278 653 q 228 617 228 639 m 783 617 q 830 546 783 579 q 932 490 876 513 q 1034 433 988 468 q 1081 361 1081 399 q 992 160 1081 275 q 813 -21 904 44 q 589 99 661 -21 l 569 131 q 701 307 665 218 l 733 296 q 725 233 725 267 q 763 156 725 200 q 847 94 801 113 q 891 158 871 118 q 911 233 911 199 q 866 301 911 267 q 767 358 821 335 q 667 415 713 381 q 622 489 622 450 q 699 648 622 560 q 849 767 775 736 q 994 750 917 750 q 1101 760 1071 750 l 1110 744 q 1060 633 1078 703 q 1043 503 1043 564 l 1015 503 q 996 576 1008 524 l 965 597 q 883 636 933 619 q 793 653 833 653 q 783 617 783 639 z "},"à":{"ha":721,"x_min":-19,"x_max":647,"o":"m 401 238 q 329 244 374 244 q 254 238 285 244 q 231 93 231 146 q 239 -4 231 40 q -6 -21 94 -4 l -19 -11 l 239 703 q 176 736 197 721 l 183 763 q 407 750 269 750 q 640 765 544 750 l 647 760 q 619 531 631 692 q 608 215 608 369 q 621 -4 608 61 q 376 -21 467 -4 l 369 -15 q 401 238 392 83 m 272 336 q 338 328 294 328 q 404 338 381 328 q 410 520 410 438 q 406 668 410 603 q 384 672 399 672 q 358 668 369 672 q 328 579 343 644 l 272 336 m 193 1085 q 228 1088 208 1088 q 268 1086 249 1088 q 532 838 331 971 l 513 804 l 146 950 q 163 1022 147 972 q 193 1085 179 1071 z "},"á":{"ha":721,"x_min":-19,"x_max":738,"o":"m 401 238 q 329 244 374 244 q 254 238 285 244 q 231 93 231 146 q 239 -4 231 40 q -6 -21 94 -4 l -19 -11 l 239 703 q 176 736 197 721 l 183 763 q 407 750 269 750 q 640 765 544 750 l 647 760 q 619 531 631 692 q 608 215 608 369 q 621 -4 608 61 q 376 -21 467 -4 l 369 -15 q 401 238 392 83 m 272 336 q 338 328 294 328 q 404 338 381 328 q 410 520 410 438 q 406 668 410 603 q 384 672 399 672 q 358 668 369 672 q 328 579 343 644 l 272 336 m 615 1086 q 655 1088 635 1088 q 690 1085 675 1088 q 720 1022 704 1071 q 738 950 736 972 l 371 804 l 351 838 q 615 1086 553 971 z "},"â":{"ha":721,"x_min":-19,"x_max":743,"o":"m 401 238 q 329 244 374 244 q 254 238 285 244 q 231 93 231 146 q 239 -4 231 40 q -6 -21 94 -4 l -19 -11 l 239 703 q 176 736 197 721 l 183 763 q 407 750 269 750 q 640 765 544 750 l 647 760 q 619 531 631 692 q 608 215 608 369 q 621 -4 608 61 q 376 -21 467 -4 l 369 -15 q 401 238 392 83 m 272 336 q 338 328 294 328 q 404 338 381 328 q 410 520 410 438 q 406 668 410 603 q 384 672 399 672 q 358 668 369 672 q 328 579 343 644 l 272 336 m 724 804 l 442 915 l 188 804 l 168 838 q 446 1086 367 963 l 507 1086 q 743 838 586 942 l 724 804 z "},"ã":{"ha":721,"x_min":-19,"x_max":747,"o":"m 401 238 q 329 244 374 244 q 254 238 285 244 q 231 93 231 146 q 239 -4 231 40 q -6 -21 94 -4 l -19 -11 l 239 703 q 176 736 197 721 l 183 763 q 407 750 269 750 q 640 765 544 750 l 647 760 q 619 531 631 692 q 608 215 608 369 q 621 -4 608 61 q 376 -21 467 -4 l 369 -15 q 401 238 392 83 m 272 336 q 338 328 294 328 q 404 338 381 328 q 410 520 410 438 q 406 668 410 603 q 384 672 399 672 q 358 668 369 672 q 328 579 343 644 l 272 336 m 418 1050 q 593 983 519 983 q 714 1032 667 983 l 747 1008 q 553 843 658 886 q 440 876 518 843 q 326 910 361 910 q 214 861 260 910 l 179 885 q 283 981 215 935 q 418 1050 350 1028 z "},"ä":{"ha":721,"x_min":-19,"x_max":722,"o":"m 401 238 q 329 244 374 244 q 254 238 285 244 q 231 93 231 146 q 239 -4 231 40 q -6 -21 94 -4 l -19 -11 l 239 703 q 176 736 197 721 l 183 763 q 407 750 269 750 q 640 765 544 750 l 647 760 q 619 531 631 692 q 608 215 608 369 q 621 -4 608 61 q 376 -21 467 -4 l 369 -15 q 401 238 392 83 m 272 336 q 338 328 294 328 q 404 338 381 328 q 410 520 410 438 q 406 668 410 603 q 384 672 399 672 q 358 668 369 672 q 328 579 343 644 l 272 336 m 415 956 q 353 879 394 924 q 283 814 313 835 q 179 956 228 856 q 235 1018 194 983 q 308 1069 275 1053 q 415 956 363 1035 m 722 956 q 660 879 701 924 q 590 814 619 835 q 486 956 535 856 q 542 1018 501 983 q 615 1069 582 1053 q 722 956 669 1035 z "},"å":{"ha":721,"x_min":-19,"x_max":647,"o":"m 401 238 q 329 244 374 244 q 254 238 285 244 q 231 93 231 146 q 239 -4 231 40 q -6 -21 94 -4 l -19 -11 l 239 703 q 176 736 197 721 l 183 763 q 407 750 269 750 q 640 765 544 750 l 647 760 q 619 531 631 692 q 608 215 608 369 q 621 -4 608 61 q 376 -21 467 -4 l 369 -15 q 401 238 392 83 m 272 336 q 338 328 294 328 q 404 338 381 328 q 410 520 410 438 q 406 668 410 603 q 384 672 399 672 q 358 668 369 672 q 328 579 343 644 l 272 336 m 431 804 q 331 829 371 804 q 292 911 292 854 q 344 1016 292 968 q 472 1086 396 1064 q 601 992 601 1086 q 553 874 601 922 q 431 804 504 825 m 382 941 q 382 923 382 941 q 401 887 382 906 q 447 868 419 868 q 494 881 475 868 q 514 949 514 914 q 495 1003 514 985 q 448 1022 476 1022 q 401 1010 419 1022 q 382 941 382 976 z "},"æ":{"ha":896,"x_min":-10,"x_max":894,"o":"m 390 336 q 340 342 368 342 q 278 339 311 342 l 260 238 q 240 85 240 131 q 249 -4 240 40 q 4 -21 104 -4 l -10 -11 l 225 703 q 163 736 183 721 l 169 763 q 509 750 256 750 q 869 768 763 750 l 876 756 q 822 572 829 701 l 797 572 q 779 651 786 603 q 683 674 726 674 q 618 668 640 674 q 597 438 606 569 q 672 432 625 432 q 781 451 719 432 l 788 444 q 767 335 774 411 q 649 347 685 347 q 594 343 614 347 l 594 239 q 615 131 594 168 q 694 93 636 93 q 746 103 728 93 q 753 161 753 126 q 733 217 753 196 l 736 226 q 853 300 814 251 q 894 246 894 292 q 826 85 894 157 q 663 -21 758 13 q 456 32 524 -21 q 388 213 388 85 l 390 336 m 292 428 q 347 425 319 425 q 394 432 374 425 q 396 538 396 474 q 392 668 396 603 q 371 672 386 672 q 344 668 356 672 q 315 578 324 636 l 292 428 z "},"ç":{"ha":581,"x_min":39,"x_max":590,"o":"m 39 267 q 120 53 39 128 q 344 -21 201 -21 q 502 110 435 25 q 586 289 569 194 q 424 275 518 278 l 415 269 q 418 229 418 250 q 390 90 418 146 q 260 313 260 90 q 319 644 260 501 q 454 578 374 644 l 476 560 q 497 483 483 522 l 524 483 q 542 622 524 544 q 590 740 560 699 l 581 758 q 495 750 556 750 q 389 767 435 750 q 39 267 39 569 m 467 -175 q 465 -194 467 -185 q 297 -326 400 -294 q 157 -292 224 -326 q 210 -192 181 -257 l 217 -189 q 321 -244 254 -244 q 358 -239 346 -244 q 367 -203 367 -228 q 246 -140 367 -140 l 236 -133 l 317 24 l 379 26 l 326 -53 l 332 -58 q 433 -92 399 -58 q 467 -175 467 -125 z "},"è":{"ha":578,"x_min":29,"x_max":582,"o":"m 451 603 q 443 611 451 603 q 403 635 435 618 q 349 651 372 651 q 308 647 325 651 q 301 601 301 633 q 338 479 301 518 q 460 433 375 440 l 453 379 q 306 338 361 379 q 251 213 251 296 q 280 125 251 157 q 358 93 308 93 q 432 111 408 93 q 439 169 439 135 q 419 225 439 204 l 422 235 q 539 308 500 260 q 581 254 581 300 q 504 90 581 167 q 329 -21 428 14 q 75 67 156 -21 q 29 185 29 114 q 103 337 29 281 q 288 404 176 393 l 288 408 q 144 444 203 408 q 86 551 86 481 q 403 772 226 715 q 582 729 510 772 q 513 556 535 657 l 500 556 q 451 603 467 589 m 93 1085 q 128 1088 108 1088 q 168 1086 149 1088 q 432 838 231 971 l 413 804 l 46 950 q 63 1022 47 972 q 93 1085 79 1071 z "},"é":{"ha":578,"x_min":29,"x_max":638,"o":"m 451 603 q 443 611 451 603 q 403 635 435 618 q 349 651 372 651 q 308 647 325 651 q 301 601 301 633 q 338 479 301 518 q 460 433 375 440 l 453 379 q 306 338 361 379 q 251 213 251 296 q 280 125 251 157 q 358 93 308 93 q 432 111 408 93 q 439 169 439 135 q 419 225 439 204 l 422 235 q 539 308 500 260 q 581 254 581 300 q 504 90 581 167 q 329 -21 428 14 q 75 67 156 -21 q 29 185 29 114 q 103 337 29 281 q 288 404 176 393 l 288 408 q 144 444 203 408 q 86 551 86 481 q 403 772 226 715 q 582 729 510 772 q 513 556 535 657 l 500 556 q 451 603 467 589 m 515 1086 q 555 1088 535 1088 q 590 1085 575 1088 q 620 1022 604 1071 q 638 950 636 972 l 271 804 l 251 838 q 515 1086 453 971 z "},"ê":{"ha":578,"x_min":29,"x_max":643,"o":"m 451 603 q 443 611 451 603 q 403 635 435 618 q 349 651 372 651 q 308 647 325 651 q 301 601 301 633 q 338 479 301 518 q 460 433 375 440 l 453 379 q 306 338 361 379 q 251 213 251 296 q 280 125 251 157 q 358 93 308 93 q 432 111 408 93 q 439 169 439 135 q 419 225 439 204 l 422 235 q 539 308 500 260 q 581 254 581 300 q 504 90 581 167 q 329 -21 428 14 q 75 67 156 -21 q 29 185 29 114 q 103 337 29 281 q 288 404 176 393 l 288 408 q 144 444 203 408 q 86 551 86 481 q 403 772 226 715 q 582 729 510 772 q 513 556 535 657 l 500 556 q 451 603 467 589 m 624 804 l 342 915 l 88 804 l 68 838 q 346 1086 267 963 l 407 1086 q 643 838 486 942 l 624 804 z "},"ë":{"ha":578,"x_min":29,"x_max":622,"o":"m 451 603 q 443 611 451 603 q 403 635 435 618 q 349 651 372 651 q 308 647 325 651 q 301 601 301 633 q 338 479 301 518 q 460 433 375 440 l 453 379 q 306 338 361 379 q 251 213 251 296 q 280 125 251 157 q 358 93 308 93 q 432 111 408 93 q 439 169 439 135 q 419 225 439 204 l 422 235 q 539 308 500 260 q 581 254 581 300 q 504 90 581 167 q 329 -21 428 14 q 75 67 156 -21 q 29 185 29 114 q 103 337 29 281 q 288 404 176 393 l 288 408 q 144 444 203 408 q 86 551 86 481 q 403 772 226 715 q 582 729 510 772 q 513 556 535 657 l 500 556 q 451 603 467 589 m 315 956 q 253 879 294 924 q 183 814 213 835 q 79 956 128 856 q 135 1018 94 983 q 208 1069 175 1053 q 315 956 263 1035 m 622 956 q 560 879 601 924 q 490 814 519 835 q 386 956 435 856 q 442 1018 401 983 q 515 1069 482 1053 q 622 956 569 1035 z "},"ì":{"ha":435,"x_min":-42,"x_max":361,"o":"m 361 760 q 330 520 344 688 q 315 214 315 353 q 333 -3 315 75 q 86 -21 168 -3 l 79 -15 q 109 219 96 56 q 122 507 122 382 q 117 704 122 632 q 61 724 83 713 l 63 750 q 354 765 246 750 l 361 760 m 6 1085 q 41 1088 21 1088 q 81 1086 61 1088 q 344 838 143 971 l 325 804 l -42 950 q -24 1022 -40 972 q 6 1085 -8 1071 z "},"í":{"ha":435,"x_min":61,"x_max":494,"o":"m 361 760 q 330 520 344 688 q 315 214 315 353 q 333 -3 315 75 q 86 -21 168 -3 l 79 -15 q 109 219 96 56 q 122 507 122 382 q 117 704 122 632 q 61 724 83 713 l 63 750 q 354 765 246 750 l 361 760 m 372 1086 q 412 1088 392 1088 q 447 1085 432 1088 q 477 1022 461 1071 q 494 950 493 972 l 128 804 l 108 838 q 372 1086 310 971 z "},"î":{"ha":435,"x_min":-33,"x_max":514,"o":"m 494 804 l 226 915 l -14 804 l -33 838 q 231 1086 142 947 l 292 1086 q 514 838 379 928 l 494 804 m 361 760 q 330 520 344 688 q 315 214 315 353 q 333 -3 315 75 q 86 -21 168 -3 l 79 -15 q 109 219 96 56 q 122 507 122 382 q 117 704 122 632 q 61 724 83 713 l 63 750 q 354 765 246 750 l 361 760 z "},"ï":{"ha":435,"x_min":-26,"x_max":497,"o":"m 210 956 q 148 879 189 924 q 78 814 107 835 q -26 956 22 856 q 29 1018 -11 983 q 103 1069 69 1053 q 210 956 157 1035 m 497 956 q 435 879 476 924 q 365 814 394 835 q 261 956 310 856 q 317 1018 276 983 q 390 1069 357 1053 q 497 956 444 1035 m 361 760 q 330 520 344 688 q 315 214 315 353 q 333 -3 315 75 q 86 -21 168 -3 l 79 -15 q 109 219 96 56 q 122 507 122 382 q 117 704 122 632 q 61 724 83 713 l 63 750 q 354 765 246 750 l 361 760 z "},"ð":{"ha":615,"x_min":11,"x_max":738,"o":"m 71 750 l 419 763 q 660 685 583 763 q 738 438 738 607 q 624 148 738 269 q 336 -21 511 26 l 300 -11 q 171 7 231 7 q 89 1 111 7 l 81 19 q 117 128 106 47 q 132 346 128 210 l 22 336 l 11 344 q 60 413 43 374 l 133 413 q 135 545 135 451 q 125 704 135 639 q 69 724 92 713 l 71 750 m 339 99 q 402 89 356 89 q 475 110 449 89 q 519 383 519 211 q 508 571 519 536 q 483 633 496 606 q 396 685 457 685 q 353 676 372 685 q 336 426 343 576 q 446 443 393 432 l 454 436 q 419 372 436 408 l 335 364 q 332 209 332 261 q 339 99 332 157 z "},"ñ":{"ha":847,"x_min":61,"x_max":774,"o":"m 638 215 q 613 750 638 621 q 767 767 700 750 l 774 761 q 742 533 756 688 q 728 238 728 378 q 746 -4 728 99 q 492 -18 581 -4 l 483 -15 q 375 246 457 75 q 269 467 293 417 q 224 547 246 517 l 219 546 q 249 -4 219 147 q 94 -21 164 -4 l 88 -15 q 115 214 104 53 q 126 499 126 375 q 115 704 126 624 q 61 724 85 711 l 63 750 q 393 768 281 750 q 596 283 425 582 l 635 215 l 638 215 m 407 1050 q 582 983 508 983 q 703 1032 656 983 l 736 1008 q 542 843 647 886 q 428 876 507 843 q 315 910 350 910 q 203 861 249 910 l 168 885 q 272 981 204 935 q 407 1050 339 1028 z "},"ò":{"ha":747,"x_min":39,"x_max":708,"o":"m 39 274 q 140 570 39 440 q 410 771 240 700 q 630 694 551 771 q 708 465 708 617 q 604 177 708 314 q 339 -21 500 40 q 123 61 207 -21 q 39 274 39 143 m 429 100 q 488 462 488 263 q 381 661 488 661 q 318 650 343 661 q 260 288 260 488 q 367 89 260 89 q 429 100 404 89 m 161 1085 q 197 1088 176 1088 q 236 1086 217 1088 q 500 838 299 971 l 481 804 l 114 950 q 131 1022 115 972 q 161 1085 147 1071 z "},"ó":{"ha":747,"x_min":39,"x_max":708,"o":"m 39 274 q 140 570 39 440 q 410 771 240 700 q 630 694 551 771 q 708 465 708 617 q 604 177 708 314 q 339 -21 500 40 q 123 61 207 -21 q 39 274 39 143 m 429 100 q 488 462 488 263 q 381 661 488 661 q 318 650 343 661 q 260 288 260 488 q 367 89 260 89 q 429 100 404 89 m 583 1086 q 623 1088 603 1088 q 658 1085 643 1088 q 688 1022 672 1071 q 706 950 704 972 l 339 804 l 319 838 q 583 1086 521 971 z "},"ô":{"ha":747,"x_min":39,"x_max":711,"o":"m 39 274 q 140 570 39 440 q 410 771 240 700 q 630 694 551 771 q 708 465 708 617 q 604 177 708 314 q 339 -21 500 40 q 123 61 207 -21 q 39 274 39 143 m 429 100 q 488 462 488 263 q 381 661 488 661 q 318 650 343 661 q 260 288 260 488 q 367 89 260 89 q 429 100 404 89 m 692 804 l 410 915 l 156 804 l 136 838 q 414 1086 335 963 l 475 1086 q 711 838 554 942 l 692 804 z "},"õ":{"ha":747,"x_min":39,"x_max":715,"o":"m 39 274 q 140 570 39 440 q 410 771 240 700 q 630 694 551 771 q 708 465 708 617 q 604 177 708 314 q 339 -21 500 40 q 123 61 207 -21 q 39 274 39 143 m 429 100 q 488 462 488 263 q 381 661 488 661 q 318 650 343 661 q 260 288 260 488 q 367 89 260 89 q 429 100 404 89 m 386 1050 q 561 983 488 983 q 682 1032 635 983 l 715 1008 q 521 843 626 886 q 408 876 486 843 q 294 910 329 910 q 182 861 228 910 l 147 885 q 251 981 183 935 q 386 1050 318 1028 z "},"ö":{"ha":747,"x_min":39,"x_max":708,"o":"m 39 274 q 140 570 39 440 q 410 771 240 700 q 630 694 551 771 q 708 465 708 617 q 604 177 708 314 q 339 -21 500 40 q 123 61 207 -21 q 39 274 39 143 m 429 100 q 488 462 488 263 q 381 661 488 661 q 318 650 343 661 q 260 288 260 488 q 367 89 260 89 q 429 100 404 89 m 383 956 q 322 879 363 924 q 251 814 281 835 q 147 956 196 856 q 203 1018 163 983 q 276 1069 243 1053 q 383 956 331 1035 m 690 956 q 628 879 669 924 q 558 814 588 835 q 454 956 503 856 q 510 1018 469 983 q 583 1069 550 1053 q 690 956 638 1035 z "},"÷":{"ha":800,"x_min":79,"x_max":722,"o":"m 453 595 q 465 583 453 595 q 476 542 476 571 q 453 488 476 513 q 401 463 429 463 q 347 488 372 463 q 322 542 322 514 q 347 595 322 571 q 401 619 372 619 q 453 595 429 619 m 453 202 q 465 190 453 202 q 476 149 476 178 q 453 94 476 119 q 401 69 429 69 q 347 95 372 69 q 322 149 322 121 q 347 202 322 178 q 401 226 372 226 q 453 202 429 226 m 92 403 q 494 390 328 390 q 714 394 660 390 l 722 386 l 710 301 l 90 301 l 79 311 l 92 403 z "},"ø":{"ha":747,"x_min":39,"x_max":708,"o":"m 39 274 q 140 570 39 440 q 410 771 240 700 q 485 764 446 771 q 501 818 492 782 q 515 867 511 854 q 581 879 556 869 l 586 874 q 533 751 556 807 q 708 476 708 692 q 604 177 708 314 q 339 -21 500 40 q 242 -7 290 -21 l 201 -121 l 193 -121 q 146 -76 156 -96 l 188 14 q 78 117 118 50 q 39 274 39 185 m 488 457 q 471 589 488 540 l 292 126 q 361 89 318 89 q 429 100 404 89 q 488 457 488 263 m 260 293 q 265 204 260 239 l 438 642 q 379 661 415 661 q 318 650 343 661 q 260 293 260 488 z "},"ù":{"ha":804,"x_min":47,"x_max":731,"o":"m 96 233 l 114 525 q 103 704 114 632 q 47 724 69 713 l 49 750 q 340 765 232 750 l 347 760 q 306 315 306 575 q 333 122 306 157 q 371 100 349 104 q 486 239 447 154 q 492 530 492 367 q 479 747 492 693 q 724 765 642 747 l 731 760 q 701 515 713 676 q 690 202 690 353 q 703 -3 690 51 q 474 -21 557 -3 l 465 -15 q 496 142 489 78 l 490 143 q 331 -21 428 26 q 152 45 208 -18 q 96 233 96 108 m 164 1085 q 199 1088 179 1088 q 239 1086 219 1088 q 503 838 301 971 l 483 804 l 117 950 q 134 1022 118 972 q 164 1085 150 1071 z "},"ú":{"ha":804,"x_min":47,"x_max":731,"o":"m 96 233 l 114 525 q 103 704 114 632 q 47 724 69 713 l 49 750 q 340 765 232 750 l 347 760 q 306 315 306 575 q 333 122 306 157 q 371 100 349 104 q 486 239 447 154 q 492 530 492 367 q 479 747 492 693 q 724 765 642 747 l 731 760 q 701 515 713 676 q 690 202 690 353 q 703 -3 690 51 q 474 -21 557 -3 l 465 -15 q 496 142 489 78 l 490 143 q 331 -21 428 26 q 152 45 208 -18 q 96 233 96 108 m 586 1086 q 626 1088 606 1088 q 661 1085 646 1088 q 691 1022 675 1071 q 708 950 707 972 l 342 804 l 322 838 q 586 1086 524 971 z "},"û":{"ha":804,"x_min":47,"x_max":731,"o":"m 96 233 l 114 525 q 103 704 114 632 q 47 724 69 713 l 49 750 q 340 765 232 750 l 347 760 q 306 315 306 575 q 333 122 306 157 q 371 100 349 104 q 486 239 447 154 q 492 530 492 367 q 479 747 492 693 q 724 765 642 747 l 731 760 q 701 515 713 676 q 690 202 690 353 q 703 -3 690 51 q 474 -21 557 -3 l 465 -15 q 496 142 489 78 l 490 143 q 331 -21 428 26 q 152 45 208 -18 q 96 233 96 108 m 694 804 l 413 915 l 158 804 l 139 838 q 417 1086 338 963 l 478 1086 q 714 838 557 942 l 694 804 z "},"ü":{"ha":804,"x_min":47,"x_max":731,"o":"m 96 233 l 114 525 q 103 704 114 632 q 47 724 69 713 l 49 750 q 340 765 232 750 l 347 760 q 306 315 306 575 q 333 122 306 157 q 371 100 349 104 q 486 239 447 154 q 492 530 492 367 q 479 747 492 693 q 724 765 642 747 l 731 760 q 701 515 713 676 q 690 202 690 353 q 703 -3 690 51 q 474 -21 557 -3 l 465 -15 q 496 142 489 78 l 490 143 q 331 -21 428 26 q 152 45 208 -18 q 96 233 96 108 m 386 956 q 324 879 365 924 q 254 814 283 835 q 150 956 199 856 q 206 1018 165 983 q 279 1069 246 1053 q 386 956 333 1035 m 693 956 q 631 879 672 924 q 561 814 590 835 q 457 956 506 856 q 513 1018 472 983 q 586 1069 553 1053 q 693 956 640 1035 z "},"ý":{"ha":610,"x_min":-24,"x_max":642,"o":"m 364 421 q 411 562 389 468 q 433 693 433 656 q 428 743 433 731 l 433 750 q 632 767 565 750 q 411 374 624 628 q 406 183 406 290 q 424 -3 406 75 q 181 -21 232 -10 l 174 -15 q 211 338 204 111 q 185 401 201 365 q 150 481 169 436 q 31 704 76 647 q -24 724 0 711 l -22 750 q 276 765 168 750 l 283 760 q 364 421 294 624 m 519 1086 q 559 1088 539 1088 q 594 1085 579 1088 q 624 1022 608 1071 q 642 950 640 972 l 275 804 l 256 838 q 519 1086 457 971 z "},"þ":{"ha":714,"x_min":61,"x_max":685,"o":"m 338 613 l 411 614 q 664 533 617 614 q 685 443 685 497 q 633 300 685 360 q 336 190 535 190 l 340 243 q 461 403 461 243 q 383 536 461 536 q 331 529 358 536 q 315 222 315 368 q 333 -3 315 75 q 86 -21 168 -3 l 79 -15 q 109 219 96 56 q 122 507 122 382 q 117 704 122 632 q 61 724 83 713 l 63 750 q 354 765 246 750 l 361 760 q 338 613 349 711 z "},"ÿ":{"ha":610,"x_min":-24,"x_max":632,"o":"m 364 421 q 411 562 389 468 q 433 693 433 656 q 428 743 433 731 l 433 750 q 632 767 565 750 q 411 374 624 628 q 406 183 406 290 q 424 -3 406 75 q 181 -21 232 -10 l 174 -15 q 211 338 204 111 q 185 401 201 365 q 150 481 169 436 q 31 704 76 647 q -24 724 0 711 l -22 750 q 276 765 168 750 l 283 760 q 364 421 294 624 m 319 956 q 258 879 299 924 q 188 814 217 835 q 83 956 132 856 q 139 1018 99 983 q 213 1069 179 1053 q 319 956 267 1035 m 626 956 q 565 879 606 924 q 494 814 524 835 q 390 956 439 856 q 446 1018 406 983 q 519 1069 486 1053 q 626 956 574 1035 z "},"ħ":{"ha":900,"x_min":36,"x_max":899,"o":"m 344 356 q 338 188 338 301 q 356 -3 338 75 q 108 -21 189 -3 l 101 -15 q 131 219 118 56 q 144 525 144 382 l 144 554 q 42 543 81 550 l 36 551 q 49 608 47 588 l 143 611 q 139 704 143 617 q 83 724 106 713 l 85 750 q 376 765 271 750 l 383 760 q 361 619 371 710 l 553 628 q 542 747 550 710 q 789 765 708 747 l 796 760 q 776 636 785 703 q 882 644 842 639 q 899 588 890 607 l 899 579 l 771 576 q 753 217 753 382 q 765 -3 753 51 q 521 -21 608 -3 l 514 -15 q 551 356 542 113 q 448 364 499 364 q 344 356 397 364 m 556 535 l 556 571 l 356 563 q 349 460 350 497 q 453 447 400 447 q 553 458 507 447 q 556 535 556 517 z "},"Ĩ":{"ha":478,"x_min":-103,"x_max":564,"o":"m 406 915 q 368 629 385 831 q 351 261 351 428 q 372 0 351 94 q 113 -21 188 -6 l 104 -14 q 138 264 124 68 q 153 571 153 460 q 150 779 153 682 q 226 800 179 789 l 228 810 q 22 765 69 810 q 19 743 19 754 q 39 669 19 699 l 39 658 q -56 540 -19 610 q -91 560 -79 540 q -103 608 -103 581 q -27 794 -103 714 q 163 917 49 875 q 274 907 208 907 q 397 922 339 907 l 406 915 m 415 1156 q 531 1204 483 1156 l 564 1181 q 369 1015 475 1058 q 242 1049 335 1015 q 115 1082 150 1082 q 3 1033 49 1082 l -32 1057 q 72 1153 4 1107 q 207 1222 139 1200 q 415 1156 308 1156 z "},"ĩ":{"ha":435,"x_min":-22,"x_max":518,"o":"m 369 983 q 485 1032 438 983 l 518 1008 q 324 843 429 886 q 224 876 289 843 q 125 910 160 910 q 13 861 58 910 l -22 885 q 81 981 14 935 q 217 1050 149 1028 q 247 1029 228 1043 q 275 1010 265 1015 q 300 997 285 1004 q 369 983 326 983 m 361 760 q 330 520 344 688 q 315 214 315 353 q 333 -3 315 75 q 86 -21 168 -3 l 79 -15 q 109 219 96 56 q 122 507 122 382 q 117 704 122 632 q 61 724 83 713 l 63 750 q 354 765 246 750 l 361 760 z "},"ı":{"ha":415,"x_min":61,"x_max":361,"o":"m 361 760 q 330 520 344 688 q 315 214 315 353 q 333 -3 315 75 q 86 -21 168 -3 l 79 -15 q 109 219 96 56 q 122 507 122 382 q 117 704 122 632 q 61 724 83 713 l 63 750 q 354 765 246 750 l 361 760 z "},"Ĳ":{"ha":956,"x_min":-103,"x_max":883,"o":"m 883 915 q 845 615 861 813 q 829 272 829 418 q 857 18 829 125 q 678 -147 785 -68 q 458 -279 571 -226 l 442 -257 q 569 -58 533 -169 q 631 635 631 132 q 628 779 631 682 q 704 800 657 789 l 706 810 q 529 765 576 810 q 526 743 526 754 q 546 669 526 699 l 546 658 q 451 540 488 610 q 416 560 428 540 q 404 608 404 581 q 471 794 404 711 q 640 917 538 876 q 751 907 686 907 q 875 922 817 907 l 883 915 m 406 915 q 368 629 385 831 q 351 261 351 428 q 372 0 351 94 q 113 -21 188 -6 l 104 -14 q 138 264 124 68 q 153 571 153 460 q 150 779 153 682 q 226 800 179 789 l 228 810 q 22 765 69 810 q 19 743 19 754 q 39 669 19 699 l 39 658 q -56 540 -19 610 q -91 560 -79 540 q -103 608 -103 581 q -27 794 -103 714 q 163 917 49 875 q 274 907 208 907 q 397 922 339 907 l 406 915 z "},"ĳ":{"ha":881,"x_min":61,"x_max":808,"o":"m 361 760 q 330 520 344 688 q 315 214 315 353 q 333 -3 315 75 q 86 -21 168 -3 l 79 -15 q 109 219 96 56 q 122 507 122 382 q 117 704 122 632 q 61 724 83 713 l 63 750 q 354 765 246 750 l 361 760 m 808 760 q 776 506 789 671 q 763 207 763 342 q 786 -21 763 72 q 404 -279 676 -137 l 388 -254 q 507 -85 472 -174 q 549 150 542 4 q 563 533 563 435 q 557 704 563 632 q 501 724 524 713 l 503 750 q 801 765 693 750 l 808 760 z "},"Ĵ":{"ha":478,"x_min":-103,"x_max":563,"o":"m 406 915 q 367 615 383 813 q 351 272 351 418 q 379 18 351 125 q 200 -147 307 -68 q -19 -279 93 -226 l -36 -257 q 92 -58 56 -169 q 153 635 153 132 q 150 779 153 682 q 226 800 179 789 l 228 810 q 22 765 69 810 q 19 743 19 754 q 39 669 19 699 l 39 658 q -56 540 -19 610 q -91 560 -79 540 q -103 608 -103 581 q -27 794 -103 714 q 163 917 49 875 q 274 907 208 907 q 397 922 339 907 l 406 915 m 547 1008 l 261 1092 l 3 1008 l -12 1043 q 257 1258 193 1150 l 321 1258 q 563 1043 397 1129 l 547 1008 z "},"ĵ":{"ha":446,"x_min":-47,"x_max":515,"o":"m 496 804 l 228 915 l -12 804 l -32 838 q 232 1086 143 947 l 293 1086 q 515 838 381 928 l 496 804 m 374 760 q 341 506 354 671 q 328 207 328 342 q 351 -21 328 72 q -31 -279 242 -137 l -47 -254 q 72 -85 38 -174 q 114 150 107 4 q 128 533 128 435 q 122 704 128 632 q 67 724 89 713 l 68 750 q 367 765 258 750 l 374 760 z "},"ķ":{"ha":742,"x_min":61,"x_max":751,"o":"m 481 706 q 478 744 481 717 l 486 750 q 733 761 644 750 q 507 449 678 600 q 638 184 569 310 q 751 -3 706 58 q 499 -21 601 -6 l 490 -18 q 358 344 456 163 l 317 314 l 317 211 q 333 -3 317 68 q 89 -21 142 -10 l 82 -15 q 110 216 99 54 q 122 505 122 378 q 117 704 122 632 q 61 724 83 713 l 63 750 q 354 765 249 750 l 361 760 q 319 390 333 646 l 393 475 q 481 706 481 575 m 511 -144 q 439 -265 500 -212 q 296 -349 378 -318 l 278 -321 q 361 -228 344 -275 q 311 -144 326 -183 q 357 -92 322 -121 q 419 -47 392 -62 q 511 -144 465 -75 z "},"ĸ":{"ha":717,"x_min":7,"x_max":715,"o":"m 336 325 q 301 139 301 219 q 313 0 301 58 q 85 -21 194 0 l 76 -14 q 104 311 104 82 q 92 632 104 540 q 7 656 32 644 l 7 681 q 326 701 214 681 l 336 683 q 303 464 303 597 q 278 353 294 417 l 300 351 q 388 549 322 446 q 528 701 453 651 q 615 683 554 692 q 707 675 675 675 l 715 654 q 647 532 681 608 q 611 403 614 456 l 586 403 q 571 472 579 429 q 467 547 561 490 q 431 504 449 529 l 464 414 q 594 142 558 163 q 688 344 657 235 l 713 339 q 554 -21 660 56 q 456 8 489 -21 q 396 117 424 38 q 336 325 368 197 z "},"Ŀ":{"ha":617,"x_min":-103,"x_max":733,"o":"m 406 915 q 368 635 385 829 q 351 305 351 440 q 363 92 351 169 q 428 86 390 86 q 608 146 554 86 q 611 168 611 157 q 592 242 611 213 l 592 253 q 686 371 650 301 q 722 350 710 371 q 733 301 733 329 q 665 110 733 203 q 501 -21 597 18 q 328 0 443 0 q 113 -21 213 0 l 104 -14 q 138 264 124 68 q 153 571 153 460 q 150 779 153 682 q 226 800 179 789 l 228 810 q 22 765 69 810 q 19 743 19 754 q 39 669 19 699 l 39 658 q -56 540 -19 610 q -91 560 -79 540 q -103 608 -103 581 q -27 794 -103 714 q 163 917 49 875 q 274 907 208 907 q 397 922 339 907 l 406 915 m 647 514 q 585 438 626 482 q 515 372 544 393 q 411 514 460 414 q 467 576 426 542 q 540 628 507 611 q 647 514 594 593 z "},"ŀ":{"ha":604,"x_min":61,"x_max":603,"o":"m 603 431 q 541 354 582 399 q 471 289 500 310 q 367 431 415 331 q 422 493 382 458 q 496 544 463 528 q 603 431 550 510 m 361 760 q 330 525 344 685 q 315 256 315 365 q 324 85 315 147 q 415 79 351 79 q 540 103 478 79 l 547 94 q 525 -18 528 35 q 299 -3 429 -3 q 89 -21 168 -3 l 82 -15 q 110 219 97 56 q 122 507 122 382 q 117 704 122 632 q 61 724 83 713 l 63 750 q 354 765 246 750 l 361 760 z "},"Ł":{"ha":617,"x_min":-103,"x_max":733,"o":"m 496 642 l 506 638 q 511 578 506 601 l 65 363 l 53 368 q 67 435 67 404 q 342 561 226 500 q 496 642 458 622 m 406 915 q 368 635 385 829 q 351 305 351 440 q 363 92 351 169 q 428 86 390 86 q 608 146 554 86 q 611 168 611 157 q 592 242 611 213 l 592 253 q 686 371 650 301 q 722 350 710 371 q 733 301 733 329 q 665 110 733 203 q 501 -21 597 18 q 328 0 443 0 q 113 -21 213 0 l 104 -14 q 138 264 124 68 q 153 571 153 460 q 150 779 153 682 q 226 800 179 789 l 228 810 q 22 765 69 810 q 19 743 19 754 q 39 669 19 699 l 39 658 q -56 540 -19 610 q -91 560 -79 540 q -103 608 -103 581 q -27 794 -103 714 q 163 917 49 875 q 274 907 208 907 q 397 922 339 907 l 406 915 z "},"ł":{"ha":436,"x_min":22,"x_max":547,"o":"m 453 538 l 463 533 q 468 474 463 497 l 35 265 l 22 271 q 36 338 36 307 q 308 461 200 404 q 453 538 415 518 m 361 760 q 330 525 344 685 q 315 256 315 365 q 324 85 315 147 q 415 79 351 79 q 540 103 478 79 l 547 94 q 525 -18 528 35 q 299 -3 429 -3 q 89 -21 168 -3 l 82 -15 q 110 219 97 56 q 122 507 122 382 q 117 704 122 632 q 61 724 83 713 l 63 750 q 354 765 246 750 l 361 760 z "},"Ń":{"ha":867,"x_min":-126,"x_max":813,"o":"m 813 918 q 778 648 793 833 q 763 292 763 463 q 783 0 763 122 q 714 -4 775 -1 q 525 -18 543 -12 l 515 -14 q 292 565 443 236 q 232 674 257 640 l 226 671 q 239 239 226 425 q 263 0 251 53 q 90 -21 146 -7 l 82 -14 q 115 263 101 68 q 129 569 129 457 q 126 779 129 682 q 203 800 156 789 l 204 810 q -1 765 46 810 q -4 743 -4 754 q 15 669 -4 699 l 15 658 q -79 540 -43 610 q -115 560 -103 540 q -126 608 -126 581 q -51 794 -126 714 q 139 917 25 875 q 260 907 185 907 q 394 922 336 907 l 403 915 q 490 619 426 793 q 617 332 553 444 l 664 249 l 668 250 q 656 673 668 496 q 632 904 643 850 q 804 925 750 911 l 813 918 m 693 1258 q 733 1260 713 1260 q 768 1257 753 1260 q 793 1191 781 1244 q 806 1114 806 1138 l 425 1008 l 410 1043 q 519 1102 482 1081 q 613 1169 557 1124 q 693 1258 668 1214 z "},"ń":{"ha":847,"x_min":61,"x_max":774,"o":"m 638 215 q 613 750 638 621 q 767 767 700 750 l 774 761 q 742 533 756 688 q 728 238 728 378 q 746 -4 728 99 q 492 -18 581 -4 l 483 -15 q 375 246 457 75 q 269 467 293 417 q 224 547 246 517 l 219 546 q 249 -4 219 147 q 94 -21 164 -4 l 88 -15 q 115 214 104 53 q 126 499 126 375 q 115 704 126 624 q 61 724 85 711 l 63 750 q 393 768 281 750 q 596 283 425 582 l 635 215 l 638 215 m 604 1086 q 644 1088 624 1088 q 679 1085 664 1088 q 709 1022 693 1071 q 726 950 725 972 l 360 804 l 340 838 q 604 1086 542 971 z "},"Œ":{"ha":1086,"x_min":42,"x_max":1076,"o":"m 42 331 q 147 692 42 526 q 431 925 251 858 l 433 924 l 432 925 q 749 904 556 904 q 1063 925 942 904 l 1071 910 q 1006 690 1013 843 l 982 690 q 960 796 969 729 q 826 825 896 825 q 765 818 800 825 q 738 518 750 715 q 823 513 764 513 q 953 536 882 513 l 960 528 q 939 411 951 504 q 795 425 842 425 q 733 422 749 425 q 731 338 731 375 q 734 263 731 300 q 750 183 738 226 q 860 99 774 99 q 897 231 897 151 q 893 274 897 256 l 903 281 q 1076 296 993 282 q 979 115 1060 204 q 804 -21 899 26 q 651 6 704 -21 q 568 92 597 32 l 560 92 q 368 -21 490 14 q 128 75 214 -21 q 42 331 42 171 m 508 783 q 423 808 474 808 q 347 793 372 808 q 274 354 274 606 q 313 166 274 233 q 428 99 351 99 q 482 108 461 99 q 514 257 511 150 l 524 604 q 508 783 524 711 z "},"œ":{"ha":975,"x_min":43,"x_max":974,"o":"m 43 274 q 144 570 43 440 q 414 771 244 700 q 521 760 451 771 q 639 750 590 750 q 949 768 842 750 l 956 756 q 901 572 908 701 l 876 572 q 858 651 865 603 q 763 674 806 674 q 697 668 719 674 q 676 438 685 569 q 751 432 704 432 q 860 451 799 432 l 867 444 q 846 335 853 411 q 728 347 764 347 q 674 343 692 347 l 674 239 q 694 131 674 168 q 774 93 715 93 q 825 103 807 93 q 832 161 832 126 q 813 217 832 196 l 815 226 q 932 300 893 251 q 974 246 974 292 q 906 85 974 157 q 742 -21 838 13 q 503 69 561 -21 q 343 -21 432 13 q 127 61 211 -21 q 43 274 43 143 m 475 488 q 476 550 476 515 q 474 625 476 585 q 395 661 443 661 q 322 650 347 661 q 264 288 264 488 q 371 89 264 89 q 433 100 408 89 q 467 249 463 164 l 475 488 z "},"Ŕ":{"ha":849,"x_min":-103,"x_max":868,"o":"m 108 -14 q 142 258 128 69 q 157 577 157 446 q 151 779 157 708 q 226 800 183 790 l 228 810 q 22 765 69 810 q 19 743 19 754 q 39 669 19 699 l 39 658 q -56 540 -19 610 q -91 560 -79 540 q -103 608 -103 581 q -27 794 -103 714 q 163 917 49 875 q 478 904 226 904 q 751 800 696 904 q 774 699 774 760 q 600 460 774 542 q 707 260 618 422 q 868 0 796 97 q 599 -21 719 -3 l 589 -18 q 526 175 574 51 q 418 415 479 299 l 383 415 l 388 467 q 499 514 460 467 q 539 657 539 561 q 444 824 539 824 q 383 815 413 824 q 356 257 356 621 q 376 0 356 94 q 117 -21 192 -6 l 108 -14 m 653 1258 q 692 1260 672 1260 q 728 1257 713 1260 q 753 1191 740 1244 q 765 1114 765 1138 l 385 1008 l 369 1043 q 479 1102 442 1081 q 572 1169 517 1124 q 653 1258 628 1214 z "},"Ŗ":{"ha":849,"x_min":-103,"x_max":868,"o":"m 108 -14 q 142 258 128 69 q 157 577 157 446 q 151 779 157 708 q 226 800 183 790 l 228 810 q 22 765 69 810 q 19 743 19 754 q 39 669 19 699 l 39 658 q -56 540 -19 610 q -91 560 -79 540 q -103 608 -103 581 q -27 794 -103 714 q 163 917 49 875 q 478 904 226 904 q 751 800 696 904 q 774 699 774 760 q 600 460 774 542 q 707 260 618 422 q 868 0 796 97 q 599 -21 719 -3 l 589 -18 q 526 175 574 51 q 418 415 479 299 l 383 415 l 388 467 q 499 514 460 467 q 539 657 539 561 q 444 824 539 824 q 383 815 413 824 q 356 257 356 621 q 376 0 356 94 q 117 -21 192 -6 l 108 -14 m 571 -144 q 499 -265 560 -212 q 356 -349 438 -318 l 338 -321 q 421 -228 404 -275 q 371 -144 386 -183 q 417 -92 382 -121 q 479 -47 451 -62 q 571 -144 525 -75 z "},"ŗ":{"ha":765,"x_min":61,"x_max":771,"o":"m 63 750 l 421 763 q 622 728 551 763 q 692 592 692 693 q 651 471 692 525 q 544 383 611 417 q 651 188 579 314 q 771 -4 722 63 q 518 -21 633 -4 l 511 -18 q 459 147 497 43 q 371 344 421 250 l 339 344 l 343 397 q 435 435 401 397 q 469 551 469 474 q 390 685 469 685 q 338 678 365 685 q 317 211 317 525 q 333 -4 317 67 q 89 -21 160 -7 l 82 -15 q 110 216 99 54 q 122 514 122 378 q 117 704 122 650 q 61 724 83 713 l 63 750 m 517 -144 q 444 -265 506 -212 q 301 -349 383 -318 l 283 -321 q 367 -228 350 -275 q 317 -144 332 -183 q 363 -92 328 -121 q 425 -47 397 -62 q 517 -144 471 -75 z "},"Ř":{"ha":849,"x_min":-103,"x_max":868,"o":"m 108 -14 q 142 258 128 69 q 157 577 157 446 q 151 779 157 708 q 226 800 183 790 l 228 810 q 22 765 69 810 q 19 743 19 754 q 39 669 19 699 l 39 658 q -56 540 -19 610 q -91 560 -79 540 q -103 608 -103 581 q -27 794 -103 714 q 163 917 49 875 q 478 904 226 904 q 751 800 696 904 q 774 699 774 760 q 600 460 774 542 q 707 260 618 422 q 868 0 796 97 q 599 -21 719 -3 l 589 -18 q 526 175 574 51 q 418 415 479 299 l 383 415 l 388 467 q 499 514 460 467 q 539 657 539 561 q 444 824 539 824 q 383 815 413 824 q 356 257 356 621 q 376 0 356 94 q 117 -21 192 -6 l 108 -14 m 186 1247 l 472 1164 l 731 1247 l 746 1213 q 476 997 540 1106 l 413 997 q 171 1213 336 1126 l 186 1247 z "},"ř":{"ha":765,"x_min":61,"x_max":771,"o":"m 63 750 l 421 763 q 622 728 551 763 q 692 592 692 693 q 651 471 692 525 q 544 383 611 417 q 651 188 579 314 q 771 -4 722 63 q 518 -21 633 -4 l 511 -18 q 459 147 497 43 q 371 344 421 250 l 339 344 l 343 397 q 435 435 401 397 q 469 551 469 474 q 390 685 469 685 q 338 678 365 685 q 317 211 317 525 q 333 -4 317 67 q 89 -21 160 -7 l 82 -15 q 110 216 99 54 q 122 514 122 378 q 117 704 122 650 q 61 724 83 713 l 63 750 m 144 1086 l 426 975 l 681 1086 l 700 1053 q 422 804 501 928 l 361 804 q 125 1053 282 949 l 144 1086 z "},"ȷ":{"ha":446,"x_min":-47,"x_max":374,"o":"m 374 760 q 341 506 354 671 q 328 207 328 342 q 351 -21 328 72 q -31 -279 242 -137 l -47 -254 q 72 -85 38 -174 q 114 150 107 4 q 128 533 128 435 q 122 704 128 632 q 67 724 89 713 l 68 750 q 367 765 258 750 l 374 760 z "},"ˆ":{"ha":575,"x_min":0,"x_max":575,"o":"m 556 754 l 274 865 l 19 754 l 0 788 q 278 1036 199 913 l 339 1036 q 575 788 418 892 l 556 754 z "},"ˇ":{"ha":575,"x_min":0,"x_max":575,"o":"m 19 1036 l 301 925 l 556 1036 l 575 1003 q 297 754 376 878 l 236 754 q 0 1003 157 899 l 19 1036 z "},"˚":{"ha":310,"x_min":0,"x_max":310,"o":"m 139 754 q 40 779 79 754 q 0 861 0 804 q 52 966 0 918 q 181 1036 104 1014 q 310 942 310 1036 q 261 824 310 872 q 139 754 213 775 m 90 891 q 90 873 90 891 q 109 837 90 856 q 156 818 128 818 q 203 831 183 818 q 222 899 222 864 q 203 953 222 935 q 156 972 185 972 q 110 960 128 972 q 90 891 90 926 z "},"˜":{"ha":568,"x_min":19,"x_max":588,"o":"m 258 1000 q 433 933 360 933 q 554 982 507 933 l 588 958 q 393 793 499 836 q 280 826 358 793 q 167 860 201 860 q 54 811 100 860 l 19 835 q 123 931 56 885 q 258 1000 190 978 z "},"̇":{"ha":236,"x_min":0,"x_max":236,"o":"m 236 896 q 174 819 215 864 q 104 754 133 775 q 0 896 49 796 q 56 958 15 924 q 129 1010 96 993 q 236 896 183 975 z "},"–":{"ha":665,"x_min":10,"x_max":656,"o":"m 64 426 q 389 410 214 410 q 644 417 564 410 l 656 406 l 601 331 l 25 331 l 10 344 l 64 426 z "},"—":{"ha":985,"x_min":10,"x_max":975,"o":"m 64 426 q 595 410 321 410 q 964 418 869 410 l 975 407 l 921 331 l 25 331 l 10 344 l 64 426 z "},"‘":{"ha":314,"x_min":29,"x_max":313,"o":"m 29 582 q 122 782 46 682 q 292 946 197 882 l 313 922 q 189 713 211 815 q 276 582 244 657 q 219 517 261 553 q 142 463 176 481 q 29 582 82 500 z "},"’":{"ha":314,"x_min":1,"x_max":285,"o":"m 285 826 q 192 626 268 726 q 22 463 117 526 l 1 486 q 125 696 103 593 q 38 826 69 751 q 95 892 53 856 q 172 946 138 928 q 285 826 232 908 z "},"‚":{"ha":306,"x_min":-7,"x_max":276,"o":"m 276 129 q 186 -65 260 26 q 14 -207 113 -157 l -7 -183 q 117 -1 96 -96 q 29 129 61 54 q 87 194 44 158 q 164 249 129 231 q 276 129 224 211 z "},"“":{"ha":599,"x_min":29,"x_max":597,"o":"m 29 582 q 122 782 46 682 q 292 946 197 882 l 313 922 q 189 713 211 815 q 276 582 244 657 q 219 517 261 553 q 142 463 176 481 q 29 582 82 500 m 314 582 q 406 782 331 682 q 576 946 482 882 l 597 922 q 474 713 496 815 q 561 582 529 657 q 503 517 546 553 q 426 463 461 481 q 314 582 367 500 z "},"”":{"ha":599,"x_min":1,"x_max":569,"o":"m 569 826 q 477 626 553 726 q 307 463 401 526 l 286 486 q 410 696 388 593 q 322 826 354 751 q 380 892 338 856 q 457 946 422 928 q 569 826 517 908 m 285 826 q 192 626 268 726 q 22 463 117 526 l 1 486 q 125 696 103 593 q 38 826 69 751 q 95 892 53 856 q 172 946 138 928 q 285 826 232 908 z "},"„":{"ha":590,"x_min":-7,"x_max":561,"o":"m 276 129 q 186 -65 260 26 q 14 -207 113 -157 l -7 -183 q 117 -1 96 -96 q 29 129 61 54 q 87 194 44 158 q 164 249 129 231 q 276 129 224 211 m 561 129 q 471 -65 544 26 q 299 -207 397 -157 l 278 -183 q 401 -1 381 -96 q 314 129 346 54 q 372 194 329 158 q 449 249 414 231 q 561 129 508 211 z "},"•":{"ha":467,"x_min":29,"x_max":438,"o":"m 438 403 l 435 382 q 217 158 290 274 l 196 158 q 29 381 151 272 l 33 401 q 159 494 111 451 q 249 603 207 538 l 271 603 q 336 497 299 539 q 438 403 374 454 z "},"…":{"ha":917,"x_min":29,"x_max":888,"o":"m 236 182 q 267 141 267 144 q 276 129 268 138 l 272 122 q 224 60 272 115 q 142 -18 175 4 l 139 -21 q 85 36 104 8 q 49 92 68 56 q 37 114 43 101 q 29 129 31 126 q 64 172 42 153 q 78 186 69 181 l 104 208 q 113 215 106 210 q 124 224 121 221 l 136 232 q 164 249 149 242 q 181 236 164 247 q 226 193 199 225 l 236 182 m 888 129 q 824 49 867 96 q 750 -21 782 1 q 689 46 721 0 q 640 129 657 92 q 698 194 656 158 q 775 249 740 231 q 888 129 835 211 m 582 129 q 519 49 561 96 q 444 -21 476 1 q 383 46 415 0 q 335 129 351 92 q 392 194 350 158 q 469 249 435 231 q 582 129 529 211 z "},"‹":{"ha":432,"x_min":47,"x_max":422,"o":"m 228 396 l 360 121 l 321 97 q 47 371 185 281 l 50 406 q 390 667 226 496 l 422 644 l 228 396 z "},"›":{"ha":432,"x_min":10,"x_max":385,"o":"m 204 368 l 72 643 l 111 667 q 385 393 247 483 l 382 358 q 42 97 206 268 l 10 119 l 204 368 z "},"€":{"ha":576,"x_min":10,"x_max":578,"o":"m 418 747 q 519 726 483 726 q 569 732 554 726 l 578 711 q 506 472 515 642 l 481 472 q 465 542 474 497 l 446 571 q 405 612 433 590 q 357 635 376 633 q 319 444 336 563 q 463 451 433 449 l 467 446 q 443 401 450 425 l 314 397 l 310 351 q 453 358 424 356 l 457 353 q 433 307 440 328 l 310 304 q 388 122 313 129 q 494 299 450 182 l 528 292 q 340 -21 476 75 q 159 55 224 -18 q 94 249 94 128 q 97 296 94 279 l 96 296 l 14 289 l 10 294 q 54 339 44 325 l 101 340 l 104 340 q 118 389 111 368 q 24 382 64 388 l 19 388 q 64 433 60 428 l 135 436 l 136 436 q 253 613 178 531 q 418 747 328 694 z "}}}
